<svg xmlns="http://www.w3.org/2000/svg" width="48" height="48" viewBox="0 0 48 48">
  <title>box</title>
  <path d="M44.7778,21.3491l-6.1136-3.5507,6.1136-3.5515a.4446.4446,0,0,0,0-.77L31.0013,5.5242a.4417.4417,0,0,0-.4457.0009L24,9.3324,17.4452,5.5251a.4422.4422,0,0,0-.4465-.0009L3.2222,13.477a.4446.4446,0,0,0,0,.77l6.1136,3.5515L3.2222,21.3491a.4453.4453,0,0,0,0,.7708l6.5546,3.7829v8.2359a.4453.4453,0,0,0,.2222.3856L23.7755,42.477c.0093.0055.0214.0076.0319.0126a.2926.2926,0,0,0,.0366.0152.4457.4457,0,0,0,.1537.031.4323.4323,0,0,0,.152-.031.2025.2025,0,0,0,.0366-.0152.2778.2778,0,0,0,.0336-.0126l13.7765-7.9527a.4449.4449,0,0,0,.2218-.3856V25.9053l6.5592-3.7859a.4451.4451,0,0,0,0-.77ZM30.78,6.4239l12.8853,7.44-5.89,3.4218-12.8866-7.44Zm-26.4459,7.44,12.8865-7.44L23.11,9.8448l-12.8878,7.44Zm-.0013,7.8692,5.8889-3.42L23.11,25.7512l-5.8889,3.4214ZM23.5533,41.32,10.6668,33.8812V26.4169l6.3315,3.6549a.4477.4477,0,0,0,.2222.0605.44.44,0,0,0,.2243-.0614l6.1115-3.55Zm.89-16.4591a.4459.4459,0,0,1-.8917,0V10.7369a.4459.4459,0,0,1,.8917,0Zm12.8849,9.0208L24.4429,41.32l.0046-14.7955,6.1081,3.5465a.4451.4451,0,0,0,.4457.0009l6.3269-3.6524ZM30.78,29.1721l-5.89-3.4213,12.8853-7.44,5.89,3.4218Z" fill="#1976d2"/>
</svg>
