<svg xmlns="http://www.w3.org/2000/svg" xmlns:xlink="http://www.w3.org/1999/xlink" viewBox="0 0 48 48">
    <path d="M30.7,45a1.89,1.89,0,0,1-1.42-3.15,4.24,4.24,0,0,0,.66-4.15,15,15,0,0,0-2.54-4.48,11,11,0,0,1-.71,1,1.88,1.88,0,0,1-1.48.7H25.1a1.9,1.9,0,0,1-1.5-.9,18.21,18.21,0,0,1-2.18-5.66,22.59,22.59,0,0,0-3.51,6.23,8.9,8.9,0,0,0,.24,6.62,1.89,1.89,0,0,1-1.7,2.72,2,2,0,0,1-1-.26c-7.6-4.48-9.89-14.76-5.32-23.92S24.26,3.65,24.66,3.36A1.89,1.89,0,0,1,25.77,3a1.86,1.86,0,0,1,.89.22,1.9,1.9,0,0,1,1,1.75c0,.1-.32,10.8,6.49,15.06a13.17,13.17,0,0,1,6,12.52,14.45,14.45,0,0,1-8.69,12.3A1.91,1.91,0,0,1,30.7,45Z"  fill="red"/>
    <path d="M33.15,21.64C25.3,16.72,25.77,4.89,25.77,4.89s-9.5,6.87-13.91,15.7C7.93,28.49,9.42,37.9,16.45,42a10.79,10.79,0,0,1-.33-8c1.81-5.4,6.69-10.09,6.69-10.09A19.24,19.24,0,0,0,25.21,33a9,9,0,0,0,1.69-3.26s3.65,3.57,4.84,7.36a6.1,6.1,0,0,1-1,6C39.6,39.35,41,26.54,33.15,21.64Z" fill="#fd7e14"/>
</svg>
