<svg xmlns="http://www.w3.org/2000/svg" xmlns:xlink="http://www.w3.org/1999/xlink" viewBox="0 0 48 48">
  <g>
    <rect x="3" y="6.86" width="34.13" height="30.11" rx="2.68" fill="#fff"/>
    <path d="M45,34.83A10.15,10.15,0,0,0,34.83,24.66l-.66,0a10.17,10.17,0,0,0-9.45,9,10.93,10.93,0,0,0-.06,1.15A10.69,10.69,0,0,0,24.88,37,10.17,10.17,0,0,0,45,34.83ZM5.63,37H21.87a12.52,12.52,0,0,1-.25-2.46c0-.28,0-.55,0-.82H7.92a2,2,0,0,1-2-2V16H34.17v6.09l.66,0a12.54,12.54,0,0,1,2.3.22V9.4A2.63,2.63,0,0,0,34.5,6.77H32.37V9.56a2.79,2.79,0,0,1-2.79,2.79h-1A2.8,2.8,0,0,1,25.8,9.56V6.77H14.32V9.56a2.79,2.79,0,0,1-2.79,2.79h-1A2.79,2.79,0,0,1,7.76,9.56V6.77H5.63A2.63,2.63,0,0,0,3,9.4V34.34A2.62,2.62,0,0,0,5.63,37Z" fill="green"/>
    <circle cx="34.83" cy="34.83" r="6.73" fill="#fff"/>
    <path d="M36.14,30.23h-2.3v3.61H30.23v2.3h5.91v-2.3h0ZM10.55,3A1.15,1.15,0,0,0,9.4,4.15V9.56a1.14,1.14,0,0,0,1.15,1.15h1a1.15,1.15,0,0,0,1.15-1.15V4.15A1.16,1.16,0,0,0,11.53,3Zm18,0a1.15,1.15,0,0,0-1.14,1.15V9.56a1.14,1.14,0,0,0,1.14,1.15h1a1.15,1.15,0,0,0,1.15-1.15V4.15A1.16,1.16,0,0,0,29.58,3ZM12.25,18.28a2.61,2.61,0,1,1-2.61,2.6A2.59,2.59,0,0,1,12.25,18.28Zm7.81,0a2.61,2.61,0,1,1-2.6,2.6A2.6,2.6,0,0,1,20.06,18.28Zm7.82,0a2.61,2.61,0,1,1-2.61,2.6A2.6,2.6,0,0,1,27.88,18.28Zm-7.82,7.87a2.61,2.61,0,1,1-2.6,2.61A2.61,2.61,0,0,1,20.06,26.15Zm-7.81,0a2.61,2.61,0,1,1-2.61,2.61A2.6,2.6,0,0,1,12.25,26.15Z" fill="green"/>
  </g>
</svg>