<svg id="mp" xmlns="http://www.w3.org/2000/svg" viewBox="0 0 210 60"><defs><style>.cls-1{fill:#247f35;}.cls-1,.cls-2{stroke:#154922;stroke-width:0.5px;}.cls-2{fill:#81ba29;}.cls-3{fill:#1173b3;}.cls-4{fill:#018f3d;}.cls-5{fill:#19a3dd;stroke:#2f358b;}.cls-5,.cls-6,.cls-7{stroke-width:0.25px;}.cls-5,.cls-7{fill-rule:evenodd;}.cls-6{fill:#ee911d;stroke:#c0282e;}.cls-7{fill:#0ba552;stroke:#036838;}</style></defs><title>mp</title><path class="cls-1" d="M54.07,48.63a13.1,13.1,0,0,1-.31,2,5.87,5.87,0,0,1-.67,1.66A1.27,1.27,0,0,1,52,53H49.6c-.58,0-.87-.25-.87-.76A6,6,0,0,1,48.86,51c.09-.42.19-.88.3-1.37s.21-1,.3-1.62a13.63,13.63,0,0,0,.14-2c0-.38,0-.78,0-1.18a4.69,4.69,0,0,0-.17-1.1,1.72,1.72,0,0,0-.47-.8,1.44,1.44,0,0,0-1.81,0,1.9,1.9,0,0,0-.47.78,4,4,0,0,0-.17,1.09c0,.41,0,.81,0,1.19a15.21,15.21,0,0,0,.11,2c.08.6.16,1.14.26,1.63s.18.94.26,1.36a6.36,6.36,0,0,1,.11,1.22c0,.56-.25.83-.74.83H43.88a1.11,1.11,0,0,1-1-.68,5.87,5.87,0,0,1-.57-1.66,16.29,16.29,0,0,1-.27-2C42,47.91,42,47.31,42,46.81c0-1.46,0-2.74.13-3.84a6.82,6.82,0,0,1,.74-2.74,3.77,3.77,0,0,1,1.8-1.63A8.4,8.4,0,0,1,48,38.06a8.62,8.62,0,0,1,3.4.54,3.82,3.82,0,0,1,1.84,1.63A6.82,6.82,0,0,1,54,43c.09,1.1.14,2.39.14,3.86C54.14,47.33,54.11,47.93,54.07,48.63Zm14.05-4.27a12.57,12.57,0,0,0-1.41-3.15,8.11,8.11,0,0,0-2-2.28A4,4,0,0,0,62.2,38a4.32,4.32,0,0,0-2.61.88,7.72,7.72,0,0,0-2,2.27,11.82,11.82,0,0,0-1.32,3.14,13.42,13.42,0,0,0-.46,3.48,6,6,0,0,0,.33,1.93,5,5,0,0,0,2.68,3,5.5,5.5,0,0,0,2.4.49h2a6,6,0,0,0,2.55-.48,4.66,4.66,0,0,0,2.63-3,6.39,6.39,0,0,0,.29-1.92A11.78,11.78,0,0,0,68.12,44.36Zm-4.7,4.45a1.46,1.46,0,0,1-1.2.39,1.43,1.43,0,0,1-1.16-.39,2.39,2.39,0,0,1-.31-1.39c0-.35,0-.82.06-1.4s.12-1.17.22-1.73a6.4,6.4,0,0,1,.44-1.47c.18-.4.43-.61.73-.61s.58.21.78.61a5.91,5.91,0,0,1,.47,1.47A13.86,13.86,0,0,1,63.67,46c0,.58,0,1.06,0,1.42A2.35,2.35,0,0,1,63.42,48.81ZM82,48.14A12.78,12.78,0,0,0,81.54,45a14.63,14.63,0,0,0-1.23-3.26,9.33,9.33,0,0,0-1.9-2.54,3.55,3.55,0,0,0-2.45-1,3.48,3.48,0,0,0-2.41,1,10,10,0,0,0-1.9,2.54A14.63,14.63,0,0,0,70.42,45,13.17,13.17,0,0,0,70,48.14a14.19,14.19,0,0,0,.08,1.51,9.82,9.82,0,0,0,.28,1.58,4.6,4.6,0,0,0,.51,1.26.91.91,0,0,0,.78.5h3.13c.36,0,.58-.08.66-.26a1.41,1.41,0,0,0,.11-.54,2.21,2.21,0,0,0-.15-.73c-.11-.28-.22-.6-.34-1s-.22-.81-.33-1.31a9.28,9.28,0,0,1-.15-1.77,10,10,0,0,1,.1-1.45A8,8,0,0,1,75,44.68a3.22,3.22,0,0,1,.45-.91.62.62,0,0,1,1.13,0,3.22,3.22,0,0,1,.46.91,8.82,8.82,0,0,1,.33,1.26,8.39,8.39,0,0,1,.12,1.41,15.38,15.38,0,0,1-.1,1.79c-.07.51-.15,1-.24,1.34s-.17.72-.24,1a2.87,2.87,0,0,0-.1.71.68.68,0,0,0,.27.57,1,1,0,0,0,.74.24h2.41a1.11,1.11,0,0,0,1-.52,3.64,3.64,0,0,0,.55-1.26,9.8,9.8,0,0,0,.24-1.59C82,49.06,82,48.57,82,48.14Zm12.77-8.78a3.05,3.05,0,0,0-1.25-.64,9.1,9.1,0,0,0-2-.32c-.76-.06-1.6-.09-2.49-.09s-1.52,0-2.24.09a11.18,11.18,0,0,0-1.92.28,5.05,5.05,0,0,0-1.36.5,1,1,0,0,0-.54.75L82.89,43a.53.53,0,0,0,.14.48.64.64,0,0,0,.38.12,1,1,0,0,0,.68-.36c.24-.24.48-.5.75-.76a5.19,5.19,0,0,1,.82-.68,1.27,1.27,0,0,1,.65-.29c.34,0,.52.15.52.45a7.61,7.61,0,0,1-.12,1.27c-.07.47-.16,1-.26,1.52s-.18,1.12-.26,1.73a16.56,16.56,0,0,0-.11,1.89c0,.48,0,1,.06,1.54a10.78,10.78,0,0,0,.21,1.51,4.13,4.13,0,0,0,.4,1.13.78.78,0,0,0,.66.44H91.2a1,1,0,0,0,.82-.27.83.83,0,0,0,.24-.56,2.69,2.69,0,0,0-.2-.82,12.94,12.94,0,0,1-.44-1.62,25.58,25.58,0,0,1-.45-2.94,45.89,45.89,0,0,1-.2-4.71.57.57,0,0,1,.16-.42.52.52,0,0,1,.36-.14,1.52,1.52,0,0,1,.73.31,4.56,4.56,0,0,1,.85.72l.65.72a.87.87,0,0,0,.55.34.46.46,0,0,0,.42-.2,1.29,1.29,0,0,0,.16-.48l.23-2.49A1.15,1.15,0,0,0,94.76,39.36Zm12.83,8.48a14.1,14.1,0,0,0-.3-1.62c-.14-.57-.31-1.15-.52-1.75a10.37,10.37,0,0,0-.76-1.7c-.33-.59-.69-1.16-1.06-1.69a13.13,13.13,0,0,0-1.13-1.41,5.39,5.39,0,0,0-1.14-1,2,2,0,0,0-1.07-.35,2.31,2.31,0,0,0-1.17.35,5.73,5.73,0,0,0-1.23,1A12.43,12.43,0,0,0,98,41.08c-.4.53-.78,1.1-1.14,1.69a10.55,10.55,0,0,0-.8,1.7,16.73,16.73,0,0,0-.51,1.74,11.37,11.37,0,0,0-.28,1.63,12,12,0,0,0-.09,1.34,10,10,0,0,0,.32,2.76c.22.7.54,1.05,1,1.05H100a1.52,1.52,0,0,0,.6-.07c.09-.05.13-.18.13-.38a3.73,3.73,0,0,0-.32-1.37,4.22,4.22,0,0,1-.32-1.6c0-.61.48-.91,1.45-.91a1.68,1.68,0,0,1,1,.23.79.79,0,0,1,.29.68,3.2,3.2,0,0,1-.1.83c-.07.26-.14.51-.23.75s-.16.47-.23.7a2.88,2.88,0,0,0-.1.69c0,.19.06.32.18.37a1.32,1.32,0,0,0,.57.08h3.6c.42,0,.71-.35.89-1.05a12.3,12.3,0,0,0,.26-2.78A11.62,11.62,0,0,0,107.59,47.84ZM102,43.33a2.3,2.3,0,0,1,.37.58,4.65,4.65,0,0,1,.21.63,2.44,2.44,0,0,1,.08.41.63.63,0,0,1-.22.45,2.09,2.09,0,0,1-1.76,0,.53.53,0,0,1-.24-.4,2.3,2.3,0,0,1,.07-.4,3.74,3.74,0,0,1,.22-.67,3,3,0,0,1,.34-.61.55.55,0,0,1,.45-.27A.65.65,0,0,1,102,43.33Zm18.59,4.3a7.66,7.66,0,0,0-.9-1.4,12.12,12.12,0,0,0-.89-1,1.09,1.09,0,0,1-.4-.66,1.11,1.11,0,0,1,.24-.71l.51-.63a5.56,5.56,0,0,0,.5-.76,2.2,2.2,0,0,0,.24-1.09,2.55,2.55,0,0,0-.9-2.05,3.31,3.31,0,0,0-2.21-.77c-1.23,0-2.19,0-2.89-.05s-1.3,0-1.81,0a2.22,2.22,0,0,0-1.9.87,3.51,3.51,0,0,0-.65,2.18c0,.8,0,1.59-.07,2.36s-.08,1.51-.13,2.21-.1,1.34-.14,1.94-.06,1.1-.06,1.53a6.52,6.52,0,0,0,.4,2.55A1.5,1.5,0,0,0,111,53h4.35a15.72,15.72,0,0,0,2.27-.15,5.76,5.76,0,0,0,1.77-.55,2.92,2.92,0,0,0,1.15-1.08,3.34,3.34,0,0,0,.41-1.72A4.07,4.07,0,0,0,120.54,47.63Zm-6.39-4.48a2.08,2.08,0,0,1-.15-.4,2.44,2.44,0,0,1-.09-.47c0-.15,0-.29,0-.4a1,1,0,0,1,.17-.62.78.78,0,0,1,.64-.21.76.76,0,0,1,.53.18.61.61,0,0,1,.2.48,2.14,2.14,0,0,1-.29,1.11.87.87,0,0,1-.77.49A.26.26,0,0,1,114.15,43.15Zm1.68,6.57a1,1,0,0,1-.9.41c-.28,0-.52-.21-.73-.63a3.17,3.17,0,0,1-.31-1.38,1.8,1.8,0,0,1,.22-.91.75.75,0,0,1,.71-.4c.24,0,.51.19.8.55a2.08,2.08,0,0,1,.45,1.36A2,2,0,0,1,115.83,49.72Zm25-6.86a13.29,13.29,0,0,0-.31-2,5.59,5.59,0,0,0-.67-1.66,1.29,1.29,0,0,0-1.13-.68h-2.36c-.58,0-.87.26-.87.77a6,6,0,0,0,.13,1.25c.09.42.19.88.3,1.37s.21,1,.3,1.63a13.39,13.39,0,0,1,.14,2c0,.39,0,.78,0,1.18a4.61,4.61,0,0,1-.17,1.1,1.8,1.8,0,0,1-.46.81,1.3,1.3,0,0,1-.91.31,1.27,1.27,0,0,1-.91-.31,1.88,1.88,0,0,1-.46-.79,3.59,3.59,0,0,1-.18-1.08c0-.4,0-.8,0-1.2a17.13,17.13,0,0,1,.11-2c.08-.6.16-1.14.26-1.63s.18-.94.26-1.36a6.36,6.36,0,0,0,.11-1.22c0-.55-.32-.83-1-.83h-2.9a1.08,1.08,0,0,0-1.07.57,3.06,3.06,0,0,0-.28,1.38,9.55,9.55,0,0,0,.1,1.35c.07.48.15,1,.24,1.49s.17,1,.24,1.51a10,10,0,0,1,.1,1.39,7.65,7.65,0,0,1-.21,2,1,1,0,0,1-1,.77,1.21,1.21,0,0,1-.86-.31,1.93,1.93,0,0,1-.49-.79,4.8,4.8,0,0,1-.22-1.08c0-.4,0-.8,0-1.2a15.09,15.09,0,0,1,.12-2c.07-.6.16-1.14.25-1.63s.19-.94.26-1.36a6.38,6.38,0,0,0,.12-1.22c0-.55-.25-.83-.75-.83h-2.59a1.1,1.1,0,0,0-1,.68,5.87,5.87,0,0,0-.57,1.66,13.21,13.21,0,0,0-.27,2c0,.7-.08,1.3-.08,1.8,0,2.94.43,5.14,1.28,6.58a4.26,4.26,0,0,0,4,2.17,5.81,5.81,0,0,0,2.24-.41l.72-.28a2.19,2.19,0,0,1,.75-.12,1.89,1.89,0,0,1,.67.12l.72.28a5.32,5.32,0,0,0,1,.28,6.36,6.36,0,0,0,1.42.13,4.5,4.5,0,0,0,1.4-.22A4.45,4.45,0,0,1,137.4,53a1.17,1.17,0,0,1,.74.24,1,1,0,0,1,.31.88,1.27,1.27,0,0,1-.32,1,2.85,2.85,0,0,1-.7.51l-.71.36a.5.5,0,0,0-.32.46,1.14,1.14,0,0,0,.67,1,4,4,0,0,0,1.9.37,5.92,5.92,0,0,0,1.38-.17A3.69,3.69,0,0,0,141.6,57a3.17,3.17,0,0,0,.92-1.09,3.71,3.71,0,0,0,.35-1.69,3.15,3.15,0,0,0-.37-1.63,6.94,6.94,0,0,0-.82-1.11l-.82-.9a1.47,1.47,0,0,1-.37-1,14.56,14.56,0,0,1,.19-2.34,16.28,16.28,0,0,0,.2-2.61C140.88,44.16,140.85,43.56,140.81,42.86Zm2.27,2.61q0,1.43,0,2.79a20.51,20.51,0,0,0,.18,2.41,6.23,6.23,0,0,0,.46,1.69.91.91,0,0,0,.82.63H147a1.74,1.74,0,0,0,1-.22,2.09,2.09,0,0,0,.62-.9,9.13,9.13,0,0,0,.55-1.78c.15-.68.28-1.32.41-1.92a14.57,14.57,0,0,1,.38-1.52c.13-.42.29-.62.49-.62s.49.22.49.68a8.32,8.32,0,0,1-.11,1.37c-.08.48-.16,1-.26,1.44s-.18.94-.26,1.38a7.75,7.75,0,0,0-.11,1.2.91.91,0,0,0,.22.69,1.46,1.46,0,0,0,.92.2h2.74a.79.79,0,0,0,.66-.39,3.29,3.29,0,0,0,.44-1,7.91,7.91,0,0,0,.25-1.45c.05-.54.08-1.1.08-1.67,0-.92,0-1.88-.09-2.86s-.08-1.91-.08-2.8c0-.63,0-1.21,0-1.74a7.9,7.9,0,0,0-.18-1.35,2.08,2.08,0,0,0-.41-.87,1,1,0,0,0-.76-.31h-2.82a1.44,1.44,0,0,0-1.17.77,6.81,6.81,0,0,0-.8,1.7,18.09,18.09,0,0,0-.51,1.93c-.06.4-.23.6-.5.6a.27.27,0,0,1-.28-.18,1.12,1.12,0,0,1-.08-.44,5.93,5.93,0,0,1,.11-1c.07-.39.14-.76.23-1.13s.15-.69.22-1a3.38,3.38,0,0,0,.11-.57.69.69,0,0,0-.18-.49,1.09,1.09,0,0,0-.78-.2H145a1.06,1.06,0,0,0-.9.6,5.47,5.47,0,0,0-.59,1.59,16,16,0,0,0-.33,2.23C143.11,43.77,143.08,44.61,143.08,45.47Zm26.77-2.55a16.83,16.83,0,0,0-.33-2.28,5.07,5.07,0,0,0-.66-1.65,1.23,1.23,0,0,0-1.08-.63h-3a1.55,1.55,0,0,0-.78.19.61.61,0,0,0-.34.55,2.3,2.3,0,0,0,.18.8c.13.31.26.64.4,1s.27.71.39,1.07a3.23,3.23,0,0,1,.19,1.07c0,.22-.18.42-.53.6a3.59,3.59,0,0,1-1.58.27c-.56,0-.83-.21-.83-.62A5.69,5.69,0,0,1,162,42.1c.09-.42.19-.83.3-1.22l.3-1a2.71,2.71,0,0,0,.14-.65c0-.57-.3-.85-.89-.85h-2.43a1.53,1.53,0,0,0-1.34.82,7,7,0,0,0-.79,2,16,16,0,0,0-.37,2.47q-.09,1.3-.09,2.25,0,1.56.06,2.85a16,16,0,0,0,.24,2.24,4.44,4.44,0,0,0,.48,1.46.87.87,0,0,0,.77.52h3.67c.29,0,.48-.06.56-.18a.78.78,0,0,0,.13-.46,4,4,0,0,0-.36-1.37,4.52,4.52,0,0,1-.33-1.8,6.3,6.3,0,0,1,0-.75,1.73,1.73,0,0,1,.24-.66,1.36,1.36,0,0,1,.55-.48,2.17,2.17,0,0,1,1-.19,1.08,1.08,0,0,1,.76.28,1.05,1.05,0,0,1,.29.8,7.23,7.23,0,0,1-.14,1.48c-.1.44-.2.83-.31,1.18s-.22.65-.31.91a2,2,0,0,0-.15.68.52.52,0,0,0,.18.42.66.66,0,0,0,.42.14h3.05c.33,0,.64-.26.91-.78a9.09,9.09,0,0,0,.72-1.93,18.89,18.89,0,0,0,.46-2.46,19.38,19.38,0,0,0,.17-2.37C169.94,44.6,169.91,43.76,169.85,42.92Zm13.65,1.44a12.57,12.57,0,0,0-1.41-3.15A8.27,8.27,0,0,0,180,38.93a4,4,0,0,0-2.46-.89,4.32,4.32,0,0,0-2.61.88,7.72,7.72,0,0,0-2,2.27,11.82,11.82,0,0,0-1.32,3.14,13.42,13.42,0,0,0-.46,3.48,6,6,0,0,0,.33,1.93,5,5,0,0,0,2.68,3,5.47,5.47,0,0,0,2.4.49h2a6,6,0,0,0,2.55-.48,4.66,4.66,0,0,0,2.63-3,6.72,6.72,0,0,0,.29-1.92A11.78,11.78,0,0,0,183.5,44.36Zm-4.7,4.45a1.46,1.46,0,0,1-1.2.39,1.43,1.43,0,0,1-1.16-.39,2.39,2.39,0,0,1-.31-1.39c0-.35,0-.82.06-1.4s.12-1.17.22-1.73a6.4,6.4,0,0,1,.44-1.47c.18-.4.43-.61.73-.61s.58.21.78.61a5.91,5.91,0,0,1,.47,1.47,13.86,13.86,0,0,1,.22,1.73c0,.58,0,1.06,0,1.42A2.35,2.35,0,0,1,178.8,48.81Zm11.63-.64a2.43,2.43,0,0,1,.35-.61,2.07,2.07,0,0,1,.45-.44.82.82,0,0,1,.46-.18.34.34,0,0,1,.34.28,2.64,2.64,0,0,1,.09.78,5.21,5.21,0,0,0,.36,1.9,4.84,4.84,0,0,0,1,1.67,5.55,5.55,0,0,0,1.7,1.2,5.65,5.65,0,0,0,2.32.45h2a6,6,0,0,0,2.55-.48,4.66,4.66,0,0,0,2.63-3,6.72,6.72,0,0,0,.29-1.92,12.1,12.1,0,0,0-.52-3.49,11.89,11.89,0,0,0-1.41-3.15A8.29,8.29,0,0,0,201,38.93a4,4,0,0,0-4.11-.55,5.17,5.17,0,0,0-1.44.92,7.62,7.62,0,0,0-1.22,1.4,10.5,10.5,0,0,0-1,1.74,2,2,0,0,1-.92.94,2.52,2.52,0,0,1-1.14.28,1.39,1.39,0,0,1-.65-.14.47.47,0,0,1-.26-.42,3.76,3.76,0,0,1,.13-.93c.09-.35.19-.69.31-1s.21-.65.3-1a2.56,2.56,0,0,0,.13-.7,1,1,0,0,0-.22-.71.88.88,0,0,0-.71-.26h-2.78c-.44,0-.81.3-1.1.89a8.66,8.66,0,0,0-.68,2.12,20.11,20.11,0,0,0-.36,2.52c-.07.86-.1,1.56-.1,2.1a17.6,17.6,0,0,0,.56,5.23c.37,1.07.83,1.61,1.37,1.61h2.59a1.63,1.63,0,0,0,1-.24.71.71,0,0,0,.27-.57,1.86,1.86,0,0,0-.13-.62c-.08-.22-.17-.46-.26-.73s-.17-.57-.25-.9a5.05,5.05,0,0,1-.11-1.08A1.86,1.86,0,0,1,190.43,48.17Zm9.33.64a2,2,0,0,1-2.35,0,2.32,2.32,0,0,1-.31-1.39c0-.35,0-.82.06-1.4a16,16,0,0,1,.22-1.73,5.94,5.94,0,0,1,.44-1.47c.18-.4.43-.61.73-.61s.58.21.78.61a6.35,6.35,0,0,1,.47,1.47A12.21,12.21,0,0,1,200,46c0,.58.06,1.06.06,1.42A2.34,2.34,0,0,1,199.76,48.81Z"/><path class="cls-2" d="M74.44,23.84a19.9,19.9,0,0,1-.1,2c-.06.68-.13,1.3-.21,1.84s-.14,1-.22,1.35-.11.54-.11.59a.82.82,0,0,1-.36.48,2.21,2.21,0,0,1-1,.15H69A.86.86,0,0,1,68.3,30a1.1,1.1,0,0,1-.2-.68,3.15,3.15,0,0,1,.24-.86c.16-.42.34-.95.55-1.6a20.8,20.8,0,0,0,.55-2.23,14.67,14.67,0,0,0,.24-2.75c0-.58-.2-.87-.59-.87-.11,0-.22.09-.34.26a1.13,1.13,0,0,0-.19.69,13.49,13.49,0,0,1-.11,1.7,5.43,5.43,0,0,1-.4,1.47,2.67,2.67,0,0,1-.78,1,2,2,0,0,1-1.27.38c-.38,0-.64-.28-.79-.85a13.88,13.88,0,0,1-.35-1.91c-.09-.69-.19-1.33-.3-1.9s-.32-.86-.63-.86-.42.35-.42,1a15.68,15.68,0,0,0,.17,2.2c.11.77.23,1.5.37,2.2s.27,1.31.38,1.84a6.37,6.37,0,0,1,.16,1.1,1.08,1.08,0,0,1-.17.67.93.93,0,0,1-.69.2H60.34c-.31,0-.56-.28-.76-.79a9.55,9.55,0,0,1-.49-1.91c-.12-.77-.2-1.61-.25-2.5s-.06-1.75-.06-2.54c0-.6,0-1.23.07-1.91s.11-1.35.18-2.05.12-1.38.17-2.06.08-1.32.08-1.92a1.9,1.9,0,0,1,.37-1.35,1.35,1.35,0,0,1,1-.39h2.58a1.41,1.41,0,0,1,1.22.72,8.38,8.38,0,0,1,.82,1.61c.23.59.43,1.12.62,1.6s.39.72.62.72.39-.24.55-.72.36-1,.6-1.6a7.13,7.13,0,0,1,.88-1.61A1.65,1.65,0,0,1,70,12.87h2.45a1.11,1.11,0,0,1,1,.67,3.53,3.53,0,0,1,.36,1.67,29.25,29.25,0,0,0,.3,3.93A33.12,33.12,0,0,1,74.44,23.84Zm14.94.26c-.07-.6-.17-1.25-.32-1.94s-.33-1.39-.55-2.1a13,13,0,0,0-.82-2c-.35-.71-.73-1.39-1.12-2a16.47,16.47,0,0,0-1.2-1.69,6.81,6.81,0,0,0-1.21-1.16A2.06,2.06,0,0,0,83,12.72a2.27,2.27,0,0,0-1.24.42,7.17,7.17,0,0,0-1.32,1.16A15.24,15.24,0,0,0,79.16,16c-.42.64-.83,1.32-1.21,2a13.09,13.09,0,0,0-.85,2c-.22.71-.41,1.41-.55,2.09a16.16,16.16,0,0,0-.29,2c-.06.63-.09,1.16-.09,1.61A13,13,0,0,0,76.51,29c.23.84.57,1.27,1,1.27h3.79A1.36,1.36,0,0,0,82,30.2c.1-.06.14-.21.14-.46a4.72,4.72,0,0,0-.34-1.64,6,6,0,0,1-.34-1.92c0-.73.52-1.09,1.54-1.09a1.64,1.64,0,0,1,1.08.27,1,1,0,0,1,.31.82,4.09,4.09,0,0,1-.11,1c-.07.31-.15.61-.24.89s-.17.57-.24.85a2.94,2.94,0,0,0-.11.82c0,.23.06.38.19.45a1.41,1.41,0,0,0,.6.1h3.84c.44,0,.75-.43.93-1.27a15.86,15.86,0,0,0,.28-3.34A14,14,0,0,0,89.38,24.1Zm-6-5.41a2.49,2.49,0,0,1,.39.7,5,5,0,0,1,.23.76,3.21,3.21,0,0,1,.08.48.82.82,0,0,1-.23.55,2,2,0,0,1-1.88,0,.63.63,0,0,1-.25-.47,4,4,0,0,1,.08-.48,5.11,5.11,0,0,1,.23-.8,3.55,3.55,0,0,1,.36-.73.59.59,0,0,1,.48-.33A.64.64,0,0,1,83.38,18.69Zm21.71-.5a20.23,20.23,0,0,0-.35-2.73,6.6,6.6,0,0,0-.7-2,1.29,1.29,0,0,0-1.14-.76H99.73a1.47,1.47,0,0,0-.83.24.75.75,0,0,0-.36.66,2.94,2.94,0,0,0,.19,1c.14.38.27.78.42,1.2s.29.85.42,1.29a4.54,4.54,0,0,1,.2,1.28c0,.27-.19.51-.56.73a3.57,3.57,0,0,1-1.69.32c-.59,0-.88-.25-.88-.75a8.22,8.22,0,0,1,.14-1.43c.1-.5.2-1,.32-1.45s.23-.88.32-1.24a3.18,3.18,0,0,0,.15-.78c0-.68-.32-1-.95-1H94a1.6,1.6,0,0,0-1.42,1,8.82,8.82,0,0,0-.84,2.41,21.27,21.27,0,0,0-.4,3q-.09,1.56-.09,2.7,0,1.88.06,3.42a25.07,25.07,0,0,0,.25,2.69,6.37,6.37,0,0,0,.51,1.75.94.94,0,0,0,.83.63h3.9c.31,0,.51-.08.59-.23a1,1,0,0,0,.14-.55,5.17,5.17,0,0,0-.38-1.64,6.11,6.11,0,0,1-.35-2.16c0-.3,0-.6,0-.9a2,2,0,0,1,.26-.79,1.47,1.47,0,0,1,.58-.58,2,2,0,0,1,1-.22,1.05,1.05,0,0,1,.82.34,1.33,1.33,0,0,1,.31,1,8.65,8.65,0,0,1-.16,1.78q-.15.78-.33,1.41c-.11.41-.22.78-.33,1.09a2.81,2.81,0,0,0-.15.82.62.62,0,0,0,.19.5.61.61,0,0,0,.45.18h3.24c.35,0,.67-.32,1-.95a12.76,12.76,0,0,0,.76-2.31,24.85,24.85,0,0,0,.49-3,25.31,25.31,0,0,0,.18-2.85C105.19,20.22,105.16,19.21,105.09,18.19Zm14.06,2.47a19.73,19.73,0,0,0-1.31-3.91,11,11,0,0,0-2-3.05,3.55,3.55,0,0,0-2.61-1.23,3.5,3.5,0,0,0-2.56,1.23,11.46,11.46,0,0,0-2,3.05,18.52,18.52,0,0,0-1.31,3.91,17.64,17.64,0,0,0-.47,3.8c0,.34,0,.61,0,.83s0,.4,0,.57l0,.49a5.44,5.44,0,0,1,0,.6A1.79,1.79,0,0,1,106.6,28l-.83,1.12a8.46,8.46,0,0,0-.82,1.4,4.35,4.35,0,0,0-.38,1.9,4.84,4.84,0,0,0,.38,2,3.61,3.61,0,0,0,1,1.3,3.43,3.43,0,0,0,1.33.71,5.31,5.31,0,0,0,1.46.21,3.81,3.81,0,0,0,2-.44,1.41,1.41,0,0,0,.72-1.25.62.62,0,0,0-.34-.56l-.75-.42a3,3,0,0,1-.75-.62,1.66,1.66,0,0,1-.34-1.13,1.74,1.74,0,0,1,.24-1,.77.77,0,0,1,.66-.35,4.69,4.69,0,0,1,1.45.28,5.69,5.69,0,0,0,1.7.27,4.76,4.76,0,0,0,1.54-.27,4.16,4.16,0,0,1,1.37-.28,1.17,1.17,0,0,1,.79.29,1.36,1.36,0,0,1,.33,1.06,1.66,1.66,0,0,1-.34,1.13,3.34,3.34,0,0,1-.75.62l-.75.42a.6.6,0,0,0-.34.56,1.41,1.41,0,0,0,.72,1.25,3.77,3.77,0,0,0,2,.44,5.33,5.33,0,0,0,1.47-.21,3.43,3.43,0,0,0,1.33-.71,3.61,3.61,0,0,0,1-1.3,4.84,4.84,0,0,0,.38-2,4.22,4.22,0,0,0-.4-2,7.44,7.44,0,0,0-.86-1.33l-.86-1.09a1.93,1.93,0,0,1-.4-1.2c0-.38,0-.74,0-1.08s0-.79,0-1.34A17.64,17.64,0,0,0,119.15,20.66Zm-5.32-1.46a4.19,4.19,0,0,1,.49,1.08,9.79,9.79,0,0,1,.34,1.52,10.8,10.8,0,0,1,.14,1.69,4.69,4.69,0,0,1-.32,2,1.21,1.21,0,0,1-1.18.65c-.69,0-1.12-.19-1.3-.58a5.39,5.39,0,0,1-.27-2.06,15.77,15.77,0,0,1,.1-1.68,9.88,9.88,0,0,1,.29-1.51,3.62,3.62,0,0,1,.47-1.08.81.81,0,0,1,.66-.41C113.45,18.79,113.64,18.93,113.83,19.2Zm20.31-3.65a3.43,3.43,0,0,0-.71-1.29,4,4,0,0,0-1.4-1,5.62,5.62,0,0,0-2.25-.38c-.53,0-1,0-1.42,0l-1.27.12c-.42,0-.89.09-1.39.12s-1.08.05-1.74.05a1.88,1.88,0,0,0-1.21.41,2.09,2.09,0,0,0-.51,1.66c0,.93,0,1.77-.06,2.54s-.09,1.48-.14,2.16-.1,1.35-.15,2-.06,1.36-.06,2.09a16.41,16.41,0,0,0,.48,4.77c.32.93.81,1.4,1.45,1.4h3.53c.59,0,.88-.28.88-.82a5,5,0,0,0-.28-1.71,5.09,5.09,0,0,1-.29-1.83,3.06,3.06,0,0,1,.1-.87,1.49,1.49,0,0,1,.33-.62,2.94,2.94,0,0,1,.58-.51l.86-.56q.79-.5,1.65-1a7.39,7.39,0,0,0,1.58-1.14,5.35,5.35,0,0,0,1.18-1.73,6.74,6.74,0,0,0,.46-2.71A4.3,4.3,0,0,0,134.14,15.55Zm-5.2,2.74a4.39,4.39,0,0,1-.4.78,2.69,2.69,0,0,1-.49.55.72.72,0,0,1-.38.22c-.27,0-.4-.34-.4-1a3.71,3.71,0,0,1,.1-.85,5.68,5.68,0,0,1,.24-.82,2.74,2.74,0,0,1,.33-.62c.13-.17.25-.25.36-.25a.64.64,0,0,1,.63.35,1.57,1.57,0,0,1,.19.79A2.19,2.19,0,0,1,128.94,18.29Zm19.95-4.9a.79.79,0,0,0-.74-.44h-3.41a.74.74,0,0,0-.66.28,1.8,1.8,0,0,0-.2,1c0,.45,0,.95,0,1.5a14.68,14.68,0,0,1-.11,1.56,5.58,5.58,0,0,1-.3,1.22c-.13.33-.32.5-.55.5s-.39-.15-.55-.44a5,5,0,0,1-.42-1.11,11,11,0,0,1-.28-1.51,15.9,15.9,0,0,1-.1-1.67,1.62,1.62,0,0,0-.26-1.06.93.93,0,0,0-.71-.29H137a1.05,1.05,0,0,0-.86.3,2,2,0,0,0-.24,1.17,13.47,13.47,0,0,0,.42,3.67,8,8,0,0,0,1.05,2.38,5.73,5.73,0,0,0,1.38,1.43,10.72,10.72,0,0,0,1.38.83c.42.22.78.41,1.06.59a.78.78,0,0,1,.41.68,1.13,1.13,0,0,1-.33,1,1.39,1.39,0,0,1-.83.25,4.73,4.73,0,0,1-1.6-.32,5,5,0,0,0-1.6-.31.88.88,0,0,0-.64.25,1,1,0,0,0-.24.72v3.34a3.56,3.56,0,0,0,.19,1.37.7.7,0,0,0,.71.42,9.86,9.86,0,0,0,5.24-1.36,11.61,11.61,0,0,0,3.72-3.6,17.09,17.09,0,0,0,2.23-5.18,24.77,24.77,0,0,0,.73-6.06A2.14,2.14,0,0,0,148.89,13.39Zm1.32,7.86c0,1.15,0,2.26,0,3.35s.09,2,.2,2.9a7.73,7.73,0,0,0,.49,2c.21.5.5.76.87.76h2.6a1.66,1.66,0,0,0,1-.28,2.4,2.4,0,0,0,.66-1.07,12.33,12.33,0,0,0,.59-2.14c.15-.81.3-1.58.43-2.3s.27-1.33.41-1.83.31-.74.51-.74c.36,0,.53.27.53.82a12.07,12.07,0,0,1-.12,1.64c-.08.58-.17,1.16-.27,1.73s-.2,1.12-.28,1.65a9.75,9.75,0,0,0-.12,1.45A1.22,1.22,0,0,0,158,30a1.39,1.39,0,0,0,1,.25h2.91a.82.82,0,0,0,.7-.48,4.5,4.5,0,0,0,.48-1.23,11.08,11.08,0,0,0,.26-1.74c0-.65.08-1.32.08-2,0-1.11,0-2.26-.09-3.44s-.09-2.29-.09-3.35c0-.77,0-1.46,0-2.09a9.63,9.63,0,0,0-.19-1.62,2.43,2.43,0,0,0-.44-1.05,1,1,0,0,0-.8-.37h-3a1.5,1.5,0,0,0-1.24.92,7.76,7.76,0,0,0-.85,2,17.76,17.76,0,0,0-.54,2.31c-.07.49-.25.73-.54.73a.29.29,0,0,1-.3-.22,1.56,1.56,0,0,1-.08-.53,8.33,8.33,0,0,1,.11-1.22c.08-.46.16-.92.24-1.36s.17-.83.25-1.17a4.2,4.2,0,0,0,.11-.68.92.92,0,0,0-.19-.58,1.05,1.05,0,0,0-.83-.24h-2.64a1.13,1.13,0,0,0-1,.72,7,7,0,0,0-.63,1.9,20.87,20.87,0,0,0-.35,2.68C150.25,19.21,150.21,20.23,150.21,21.25ZM157.44,11a3.56,3.56,0,0,0,1.56-.36,5.13,5.13,0,0,0,1.32-.9,4.93,4.93,0,0,0,.92-1.17,2.41,2.41,0,0,0,.34-1.15,3,3,0,0,0-.16-.76A6.29,6.29,0,0,0,161,5.57a4.51,4.51,0,0,0-.69-1,1.18,1.18,0,0,0-.88-.43.69.69,0,0,0-.64.51c-.15.34-.32.72-.52,1.12a4.3,4.3,0,0,1-.79,1.12,2,2,0,0,1-1.49.51.81.81,0,0,1-.63-.25.91.91,0,0,1-.23-.64,1.51,1.51,0,0,1,.2-.73,4.94,4.94,0,0,1,.44-.65l.45-.6a1,1,0,0,0,.21-.56,1.66,1.66,0,0,0-.57-1.27,1.83,1.83,0,0,0-1.26-.52,1.81,1.81,0,0,0-1.67,1.08,5.4,5.4,0,0,0-.58,2.6,5.63,5.63,0,0,0,.42,2.26,4.48,4.48,0,0,0,2.78,2.55A5.93,5.93,0,0,0,157.44,11Zm23,8.14a29.4,29.4,0,0,1-.31-3.93,3.53,3.53,0,0,0-.35-1.67,1.13,1.13,0,0,0-1.06-.67h-2.44a1.64,1.64,0,0,0-1.39.72A7.13,7.13,0,0,0,174,15.2c-.24.59-.44,1.12-.6,1.6s-.34.72-.55.72-.44-.24-.63-.72-.38-1-.61-1.6a8.38,8.38,0,0,0-.82-1.61,1.41,1.41,0,0,0-1.22-.72H167a1.39,1.39,0,0,0-1,.39,2,2,0,0,0-.36,1.35c0,.6,0,1.24-.08,1.92s-.11,1.37-.17,2.06-.13,1.38-.18,2.05-.08,1.31-.08,1.91c0,.79,0,1.64.07,2.54a23,23,0,0,0,.25,2.5,9.55,9.55,0,0,0,.49,1.91c.2.51.45.77.76.79h3.39a.89.89,0,0,0,.68-.2,1,1,0,0,0,.18-.67,5.74,5.74,0,0,0-.17-1.1c-.11-.53-.23-1.14-.37-1.84s-.26-1.43-.37-2.2a15.68,15.68,0,0,1-.17-2.2q0-1,.42-1c.31,0,.52.29.63.86s.21,1.21.29,1.9a15.5,15.5,0,0,0,.36,1.91c.14.57.41.85.79.85a2,2,0,0,0,1.27-.38,2.67,2.67,0,0,0,.78-1,5.43,5.43,0,0,0,.4-1.47,13.49,13.49,0,0,0,.11-1.7,1.2,1.2,0,0,1,.18-.69c.13-.17.24-.26.35-.26.39,0,.59.29.59.87a14.67,14.67,0,0,1-.24,2.75,20.8,20.8,0,0,1-.55,2.23c-.21.65-.39,1.18-.55,1.6a2.94,2.94,0,0,0-.25.86,1,1,0,0,0,.21.68.86.86,0,0,0,.72.27h3.41a2.26,2.26,0,0,0,1-.15.82.82,0,0,0,.36-.48c0-.05,0-.24.11-.59s.15-.8.22-1.35.14-1.16.21-1.84a19.9,19.9,0,0,0,.1-2A33.12,33.12,0,0,0,180.45,19.14Zm15.14.78a16.94,16.94,0,0,0-1.5-3.78,9.78,9.78,0,0,0-2.18-2.73,4,4,0,0,0-2.61-1.06,4.27,4.27,0,0,0-2.78,1,9.07,9.07,0,0,0-2.16,2.73,15.43,15.43,0,0,0-1.4,3.77,18,18,0,0,0-.5,4.18,7.83,7.83,0,0,0,.36,2.31,6.32,6.32,0,0,0,1.05,2.09,5.54,5.54,0,0,0,1.8,1.51,5.45,5.45,0,0,0,2.55.58h2.11A5.84,5.84,0,0,0,193,30a5.19,5.19,0,0,0,1.8-1.5,6,6,0,0,0,1-2.07,8.72,8.72,0,0,0,.31-2.3A16.44,16.44,0,0,0,195.59,19.92Zm-5,5.34a1.9,1.9,0,0,1-2.5,0,3.05,3.05,0,0,1-.33-1.67c0-.41,0-1,.07-1.68a20.16,20.16,0,0,1,.23-2.07,8.15,8.15,0,0,1,.46-1.76c.2-.49.46-.73.78-.73s.62.24.83.73a8,8,0,0,1,.5,1.76,20.16,20.16,0,0,1,.23,2.07c0,.71.05,1.28.05,1.71A3,3,0,0,1,190.58,25.26Z"/><path class="cls-3" d="M33.14,33.93l2.57,6.58-.07.05-5-5.15.65-1.5Zm6.67-12.15-.05-.08-6.67,2.61,0,1.63,1.67.75ZM21,17.65l2.57,6.59,1.83,0,.65-1.5-5-5.15Zm-4.1,18.74,0,.08,6.67-2.61,0-1.64-1.67-.74ZM21,17.65l.08,0a13.5,13.5,0,0,1,8.09-2.11l.34-.8a14.41,14.41,0,0,0-14.68,9.44h.87A13.61,13.61,0,0,1,21,17.65ZM39.76,21.7l.05.08a13.57,13.57,0,0,1,2.1,8.11l.8.36A14.42,14.42,0,0,0,33.3,15.54l0,.87A13.55,13.55,0,0,1,39.76,21.7ZM41,34a13.54,13.54,0,0,1-5.3,6.49l-.07.05a13.62,13.62,0,0,1-8.1,2.11l-.34.8A14.45,14.45,0,0,0,41.89,34ZM16.9,36.47l0-.08a13.58,13.58,0,0,1-2.1-8.12l-.8-.35a14.44,14.44,0,0,0,9.41,14.71l0-.87A13.61,13.61,0,0,1,16.9,36.47Z"/><path class="cls-4" d="M33.05,25.9l.5-20.75-8.2,19.07L5.23,24l18.38,8.19-.5,20.76,8.2-19.07,20.12.22Zm-4.71,3.15h0L31,33.25,23.8,49.75l4.53-20.7h0l-4.2,2.69L7.62,24.52l20.71,4.53h0l-2.69-4.2L32.86,8.33,28.32,29h0l4.21-2.68L49,33.57,28.33,29Z"/><path class="cls-5" d="M11.11,32.91c0,1.4,1,1.47,1.32,2h-2.1a.62.62,0,0,0-.55.75c.21,1.62.37,3.08.58,4.75a.24.24,0,0,0,.09.16l3.78,3a.62.62,0,0,0,.92-.1l1.09-1.79c.32.57-.1,1.46,1.08,2.18h0a2,2,0,0,1,.61.65l1.22-.69a1.81,1.81,0,0,0-.69-.66,1.7,1.7,0,0,1-.8-1.43A2,2,0,0,0,16.75,40a1.71,1.71,0,0,1-.87-1.45,2,2,0,0,0-1-1.74,1.69,1.69,0,0,1-.8-1.5,1.92,1.92,0,0,0-1-1.64,1.7,1.7,0,0,1-.8-1.43,1.93,1.93,0,0,0-.22-.92l-1.23.69a2,2,0,0,1,.25.86Zm-3.63,8,0-.08-.51-1.69a.5.5,0,0,1,0-.12.61.61,0,0,1,0-.3L7.24,37a.59.59,0,0,1,.31-.42l-.28-1.13a.71.71,0,0,1-.55-.52l-.58-2.37a.72.72,0,0,1,.53-.86h0a.71.71,0,0,1,.86.52l.58,2.37a.72.72,0,0,1-.24.71l.32,1.31a.61.61,0,0,1,.25.62l0,.23.47,1.91.24-.14.76-.43.19,1.6a.64.64,0,0,0,.11.27.81.81,0,0,0,.17.24l1.28,1-.76.43-.88.49.55.9.06.11a.66.66,0,0,1,.09.28l.12,1.77a.62.62,0,0,1-.22.51l.2.81a.71.71,0,0,1,.55.52l.58,2.37a.71.71,0,0,1-.52.86h0a.71.71,0,0,1-.86-.52L10,48.05a.7.7,0,0,1,.24-.72L10,46.49a.62.62,0,0,1-.4-.54L9.47,44.4l0-.13-.87-1.42a.05.05,0,0,1,0,0,1,1,0,0,1-.16-.23L8,41.9l-.38-.68a1.3,1.3,0,0,1-.13-.3ZM5.19,43.49a1.47,1.47,0,1,0,.55-2A1.47,1.47,0,0,0,5.19,43.49Z"/><path class="cls-6" d="M21.91,14.14a.61.61,0,0,1,.08.74.65.65,0,0,1-.81.3,1.38,1.38,0,0,1-.49-.3c-.71-.68-1.48-1.3-2.22-2l-1-.88a.53.53,0,0,0,0,.19c.36,1.46.67,2.93,1,4.41a.67.67,0,0,1-.32.7A.69.69,0,0,1,17,17c-.18-.43-.32-.88-.47-1.32-.57-1.58-1.11-3.16-1.72-4.73A18.4,18.4,0,0,0,14,9.08a10.2,10.2,0,0,1-.59-1.35,1.35,1.35,0,0,1,.43-1.53A1.24,1.24,0,0,1,15,5.88c.84.17,1.7.31,2.54.51.48.12.95.26,1.42.41a.66.66,0,0,1,.37,1,.53.53,0,0,1-.38.27,1.58,1.58,0,0,1-.65,0c-.61-.11-1.23-.18-1.84-.31l0,0A5.61,5.61,0,0,1,16.79,9a.55.55,0,0,0,.14.23c1.21,1.15,2.45,2.27,3.62,3.45A16.12,16.12,0,0,1,21.91,14.14Zm-7.7-3.28c0-.06,0-.12-.05-.18a10.78,10.78,0,0,0-.88-2c-.21-.4-.4-.71-.59-1a.32.32,0,0,0-.38-.15,1.87,1.87,0,0,0-.82.38.39.39,0,0,0-.18.37c0,.12,0,.25,0,.38a5,5,0,0,0,.6,1.88,3.27,3.27,0,0,0,1,1.17.6.6,0,0,0,.53.1,1.71,1.71,0,0,0,.54-.27A.56.56,0,0,0,14.21,10.86Zm-.29-5.29a1.5,1.5,0,0,0,.58-2.05,1.51,1.51,0,1,0-.58,2.05ZM21.44,11h0l-.53-.94c-.4-.7-.81-1.39-1.21-2.08-.05-.09-.08-.1-.13,0a.74.74,0,0,1-.51.35c-.11,0-.1.06-.05.14l1.15,1.76,1.59,2.45,1,1.59a.25.25,0,0,0,.38.06c.1-.09.11-.21,0-.38Zm-4-4.93c.42.1.84.21,1.25.34-.25-.44-.49-.88-.74-1.31a.56.56,0,0,0-.69-.21.52.52,0,0,0-.19.67c.08.16.2.31.29.46A.14.14,0,0,0,17.47,6.06Z"/><path class="cls-7" d="M49.16,19.64a3.72,3.72,0,0,1-.62-3.24.27.27,0,0,0-.14-.35c-.21-.11-.41-.26-.63-.35A.61.61,0,0,0,47,16a4.17,4.17,0,0,0-.36.84c-.09.32-.15.66-.21,1a2.33,2.33,0,0,1-1,1.49,11,11,0,0,1-1.53.88c-.36.18-.71.36-1.08.53a1.09,1.09,0,0,1-.85.1.78.78,0,0,1-.57-.64.82.82,0,0,1,.32-.84,7.36,7.36,0,0,1,1.41-.76,3.55,3.55,0,0,0,1-.53,2.12,2.12,0,0,0,.68-1.28,7.55,7.55,0,0,0,.12-.94,4.19,4.19,0,0,1,.38-1.64,1.64,1.64,0,0,1,1-.91.69.69,0,0,1,.24,0,5.26,5.26,0,0,1,3.57,1.18,1.84,1.84,0,0,1,.56.76.31.31,0,0,1,0,.23c-.16.45-.32.91-.52,1.35a1.71,1.71,0,0,0,.18,1.73c.19.29.39.56.57.85a.91.91,0,0,1,.09,1,.68.68,0,0,1-.95.3,2.25,2.25,0,0,1-.66-.68Zm-6.4-1.9a3.33,3.33,0,1,0-4.61-.91A3.33,3.33,0,0,0,42.76,17.74ZM39.6,13a2.39,2.39,0,1,1-.67,3.31A2.39,2.39,0,0,1,39.6,13Zm5.09,7.59a3.33,3.33,0,1,0,4.61.91A3.32,3.32,0,0,0,44.69,20.58Zm.52.78a2.38,2.38,0,1,1-.65,3.31A2.39,2.39,0,0,1,45.21,21.36Zm6-3.95a1.56,1.56,0,1,0,.43-2.16A1.56,1.56,0,0,0,51.21,17.41Z"/></svg>