<svg xmlns="http://www.w3.org/2000/svg" viewBox="0 0 173 50">
  <g>
    <path d="M172.27,39.6a9.93,9.93,0,0,0-2.84-5.89,3.77,3.77,0,0,0-5.45-.08,7.51,7.51,0,0,0-1.77,2.47,1.65,1.65,0,0,1-.9.95c-.38.14-.82.32-1.15,0s0-.66,0-1c.16-.64.4-1.27.53-1.93.16-.82-.22-1.24-1-1.24s-1.37,0-2.06,0a1.24,1.24,0,0,0-1.24.75,6.86,6.86,0,0,0-.59,1.7,21.81,21.81,0,0,0-.37,6.19,7.51,7.51,0,0,0,.67,3c.22.45.51.86,1.06.88.82,0,1.64,0,2.46,0s1.23-.58.95-1.45c-.14-.44-.31-.88-.42-1.34a1.93,1.93,0,0,1,.19-1.73c.16-.23.34-.56.63-.49s.16.44.16.67a4.53,4.53,0,0,0,3.67,4.43,10.76,10.76,0,0,0,4,0,4.1,4.1,0,0,0,3.42-3.31A10.17,10.17,0,0,0,172.27,39.6ZM167.75,41c-.07.6-.29.79-.93.8s-1-.17-1-.77a10.67,10.67,0,0,1,.12-2.59,5.74,5.74,0,0,1,.42-1.64c.09-.18.17-.39.41-.4s.37.19.46.39a7.42,7.42,0,0,1,.58,3v.25A3.3,3.3,0,0,1,167.75,41Zm-13.07-1.57a10,10,0,0,0-2.77-5.72,3.69,3.69,0,0,0-4-1,4.91,4.91,0,0,0-2.33,1.84,10.24,10.24,0,0,0-2,6.5,4.45,4.45,0,0,0,2.74,4.2,7.08,7.08,0,0,0,3,.4,12.13,12.13,0,0,0,1.62-.09,4.23,4.23,0,0,0,3.63-3.08A6.75,6.75,0,0,0,154.68,39.47Zm-4.52,1.71c0,.51-.32.66-.94.66-.46,0-.88-.06-1-.62a3.45,3.45,0,0,1-.08-.85,11.76,11.76,0,0,1,.51-3.34c.09-.26.16-.6.53-.58s.41.31.5.55A9.43,9.43,0,0,1,150.16,41.18Zm-18.5-1.43a16.29,16.29,0,0,1,.41-4.77,5.64,5.64,0,0,1,.66-1.51,1.47,1.47,0,0,1,1.25-.71c.67,0,1.34,0,2,0s1.12.47.94,1.23a22.25,22.25,0,0,0-.67,2.82c0,.49.16.63.59.6h.05c1.35,0,1.59-.35,1.14-1.6-.2-.54-.42-1.06-.61-1.59-.32-.88,0-1.42,1-1.46s1.74,0,2.61,0a1.24,1.24,0,0,1,1.1.69,6.75,6.75,0,0,1,.76,2.88,17.76,17.76,0,0,1-.63,7.39l-.11.33c-.47,1.23-.72,1.4-2,1.4h-1.61c-.75,0-1-.37-.82-1.1a12.92,12.92,0,0,0,.68-2.67s0-.06,0-.09c.06-.65-.09-1-.5-1.05a1.11,1.11,0,0,0-1.38.77,3.58,3.58,0,0,0,.18,2.12,3.61,3.61,0,0,1,.31,1.2c0,.53-.2.81-.72.82-1,0-2.08,0-3.12,0-.57,0-.84-.42-1-.89a8,8,0,0,1-.44-2.56C131.64,41.26,131.66,40.51,131.66,39.75Zm-7.18-2.68c.25-.11.22-.3.26-.45a10.14,10.14,0,0,1,1-2.87,1.55,1.55,0,0,1,1.53-.84c.65,0,1.3,0,2,0a1.11,1.11,0,0,1,1.23.87,4.86,4.86,0,0,1,.25,1.68c0,2.31.22,4.62.13,6.93a6.17,6.17,0,0,1-.5,2.39,1.1,1.1,0,0,1-1.12.68c-.67,0-1.34,0-2,0-1,0-1.27-.28-1.21-1.26.07-1.15.43-2.26.56-3.41,0-.22,0-.43,0-.65s.09-.43-.16-.46-.2.23-.25.37c-.27.83-.39,1.69-.58,2.54a9.68,9.68,0,0,1-.61,2,1.43,1.43,0,0,1-1.42.91h-1.86a1,1,0,0,1-1.17-.8,8.83,8.83,0,0,1-.48-3.06,32,32,0,0,1,.2-6.11,5.78,5.78,0,0,1,.6-1.9,1.13,1.13,0,0,1,1.12-.68c.71,0,1.41,0,2.11,0s.93.34.82,1-.32,1.54-.47,2.31A1.71,1.71,0,0,0,124.48,37.07Zm-9,12.22a1.61,1.61,0,0,1-.82-.63.8.8,0,0,1,.34-1.21,9.17,9.17,0,0,0,.86-.5.9.9,0,0,0,.31-1.12c-.15-.43-.54-.39-.9-.35a15.38,15.38,0,0,1-1.82.33,5.75,5.75,0,0,1-2.49-.47,1.9,1.9,0,0,0-1.6,0,5.53,5.53,0,0,1-2.38.47,3.75,3.75,0,0,1-3.61-2.33,10.52,10.52,0,0,1-.84-3.95,17,17,0,0,1,.33-4.83,6.21,6.21,0,0,1,.29-.86,1.3,1.3,0,0,1,1.46-1c.57,0,1.14,0,1.71,0,.73,0,1,.24,1,1a22.51,22.51,0,0,1-.46,3.07,12.09,12.09,0,0,0,0,3.45,2.07,2.07,0,0,0,.12.49.93.93,0,0,0,1,.74c.57,0,.61-.5.68-.9A10.92,10.92,0,0,0,108.3,37a10.91,10.91,0,0,1-.26-2.49c.09-1.34.6-1.7,1.65-1.63.67,0,1.34,0,2,0,.92,0,1.26.35,1.13,1.28s-.36,2.11-.51,3.16a13.62,13.62,0,0,0,0,3.06,2.19,2.19,0,0,0,.12.49.93.93,0,0,0,1,.72.88.88,0,0,0,.9-.78,9.38,9.38,0,0,0,.06-3.3c-.13-1-.39-2.06-.58-3.1a3.16,3.16,0,0,1,0-.75.73.73,0,0,1,.76-.77q1.16,0,2.31,0a1.25,1.25,0,0,1,1,.75,7.94,7.94,0,0,1,.8,3.24,18.67,18.67,0,0,1-.25,4.54,2.33,2.33,0,0,0,.74,2.26,3.42,3.42,0,0,1,1.23,2.69,3,3,0,0,1-2.62,3A4.16,4.16,0,0,1,115.43,49.29Zm-13.8-8.52a6.78,6.78,0,0,0-1.39-2c-.61-.67-.61-.67,0-1.37a3,3,0,0,0,.82-1.58,2.6,2.6,0,0,0-2.77-2.89c-1.21,0-2.41,0-3.61-.08A2.29,2.29,0,0,0,92,35.11c-.14,1.88-.18,3.77-.3,5.65a11.06,11.06,0,0,0,.1,3.3,1.59,1.59,0,0,0,1.78,1.4h2.06c.55,0,1.1,0,1.65,0a11.29,11.29,0,0,0,2.24-.24C102,44.66,102.32,42.48,101.63,40.77Zm-5.15-5.32c.28,0,.44.14.4.41,0,.47-.32,1.09-.53,1-.39-.16-.26-.59-.31-.91S96.12,35.43,96.48,35.45Zm.81,6.87a.51.51,0,0,1-.93,0,2,2,0,0,1-.25-1.63c.14-.49.5-.57.86-.21a1.6,1.6,0,0,1,.45,1.22A1.47,1.47,0,0,1,97.29,42.32Zm-7.15-4.08A11.47,11.47,0,0,0,87,33.39a2,2,0,0,0-2-.54,3.76,3.76,0,0,0-1.5,1,11.48,11.48,0,0,0-3.55,7.89,7.9,7.9,0,0,0,.3,2.78,1.14,1.14,0,0,0,1.32,1h2.21c1.34,0,1.53-.26,1.1-1.54,0-.13-.09-.25-.14-.38a3,3,0,0,1-.21-1.07.47.47,0,0,1,.38-.56c.44-.08.94-.22,1.31.09s.14.75,0,1.14a10.59,10.59,0,0,0-.42,1.49c0,.6.12.81.71.83s1,0,1.56,0h1c1,0,1.31-.21,1.52-1.25A11.34,11.34,0,0,0,90.14,38.24Zm-4.7.61c-.67,0-.82-.17-.59-.8.12-.33.18-.84.58-.85s.48.48.6.82C86.26,38.64,86.1,38.84,85.44,38.85Zm-10.6-6.13a17.38,17.38,0,0,1,3.75.3,3.19,3.19,0,0,1,1.07.42,1.22,1.22,0,0,1,.63,1.26c-.08.7-.12,1.4-.2,2.1,0,.31-.11.64-.48.75a.77.77,0,0,1-.84-.31A6.46,6.46,0,0,0,77.42,36c-.42-.23-.59-.15-.58.33a24.89,24.89,0,0,0,1,7.72c.29.88-.11,1.42-1,1.43s-1.91,0-2.86,0a1,1,0,0,1-1.18-.79,7.22,7.22,0,0,1-.39-2.06,19.91,19.91,0,0,1,.43-5.33c.06-.31.1-.62.14-.94,0-.16.07-.35-.09-.46s-.32,0-.45.11a7,7,0,0,0-1.34,1.2,1.18,1.18,0,0,1-.68.39.59.59,0,0,1-.72-.62c0-.91,0-1.81.09-2.71a1,1,0,0,1,.65-.82,6.12,6.12,0,0,1,2.41-.6A16.07,16.07,0,0,1,74.84,32.72ZM61.74,45.46c-.32,0-.64,0-1,0a1.24,1.24,0,0,1-1.39-.9,8.9,8.9,0,0,1-.5-4.39A11.2,11.2,0,0,1,61.37,34a3.35,3.35,0,0,1,3-1.43,3.74,3.74,0,0,1,2.48,1.56,11.4,11.4,0,0,1,2.26,5.24,10.53,10.53,0,0,1-.1,4.47,2.76,2.76,0,0,1-.38.92,1.26,1.26,0,0,1-1.15.67H65.7c-1,0-1.35-.49-1.12-1.42a13.67,13.67,0,0,0,.49-3.76,6,6,0,0,0-.57-2.42c-.09-.17-.19-.39-.42-.4s-.36.22-.45.41a6.88,6.88,0,0,0-.36,4.27,14.6,14.6,0,0,0,.49,1.68,2.65,2.65,0,0,1,.16.73c0,.63-.25.9-.87.91ZM55.57,34.07c-2-2.33-4.66-2-6.42.2A10,10,0,0,0,47,41.43a4.4,4.4,0,0,0,3.54,4.1,8.41,8.41,0,0,0,2.08.13,11.85,11.85,0,0,0,1.67-.07A4.11,4.11,0,0,0,58,42.24,9.59,9.59,0,0,0,55.57,34.07Zm-2,7.08c-.08.53-.33.69-1,.69s-.94-.17-1-.7a10.08,10.08,0,0,1,.5-4.25c.08-.21.17-.46.47-.45s.38.26.47.47a9.21,9.21,0,0,1,.51,4.24Zm-7.55-2a16,16,0,0,1-.36,4.35,7.58,7.58,0,0,1-.28.8,1.63,1.63,0,0,1-1.85,1.19c-.45,0-.91,0-1.36,0-.89,0-1.23-.35-1.09-1.25s.34-1.77.51-2.65A13.58,13.58,0,0,0,41.7,38a2.09,2.09,0,0,0-.08-.34c-.17-.64-.45-.9-1-.9s-.83.27-1,.92a10,10,0,0,0,0,3.19c.11,1,.32,2,.49,3a5.36,5.36,0,0,1,0,.7c0,.66-.28,1-.94,1h-2a1.2,1.2,0,0,1-1.13-.7,6.2,6.2,0,0,1-.65-2.35,22.4,22.4,0,0,1,.16-6.69,3.62,3.62,0,0,1,3.53-3.12,13,13,0,0,1,2.86,0,3.88,3.88,0,0,1,3.75,3.75C46,37.38,46,38.41,46,39.13ZM163.77,15.47a9.05,9.05,0,0,0-2.5-3.58,3.53,3.53,0,0,0-4.65-.07,7,7,0,0,0-1.75,2,13.46,13.46,0,0,0-1.77,7.86,5.14,5.14,0,0,0,3,4.57,6.33,6.33,0,0,0,2.86.37h.7a4.79,4.79,0,0,0,5.14-4.49A12.89,12.89,0,0,0,163.77,15.47ZM160,21.55c-.15.58-.56.63-1,.63s-.86-.12-1-.65a5,5,0,0,1-.08-1.54,14.76,14.76,0,0,1,.49-3.56,2.25,2.25,0,0,1,.2-.51c.23-.41.52-.41.76,0a4.86,4.86,0,0,1,.52,1.67,17.85,17.85,0,0,1,.22,2.64A6.66,6.66,0,0,1,160,21.55Zm-8-1.49a27.08,27.08,0,0,1-.52,5.54.89.89,0,0,1-.88.81c-1.17.07-2.34.05-3.51,0-.72,0-1-.66-.75-1.46a23.53,23.53,0,0,0,1-3.36,10.91,10.91,0,0,0,.22-2.34c0-.21.06-.53-.24-.51s-.25.31-.25.53a9.08,9.08,0,0,1-.19,1.95,2.83,2.83,0,0,1-1,1.71c-1,.76-1.9.44-2.14-.77-.19-1-.33-1.94-.5-2.91a1,1,0,0,0-.07-.29c0-.09-.06-.21-.19-.21s-.14.16-.15.26a10.13,10.13,0,0,0,.15,2.4c.23,1.25.47,2.5.69,3.75.17.93-.13,1.27-1.08,1.27h-2.36a1,1,0,0,1-1.13-.77,11.29,11.29,0,0,1-.59-3.05,41.11,41.11,0,0,1,.23-7.76c.06-.61.07-1.23.08-1.85,0-1.13.48-1.59,1.6-1.6h1.85a1.49,1.49,0,0,1,1.34.74,11.93,11.93,0,0,1,1,2.27c.08.21.16.41.25.61s.09.24.22.23.17-.15.21-.25c.26-.69.5-1.38.8-2a2.27,2.27,0,0,1,2.51-1.56,9.53,9.53,0,0,0,1.31,0,1.28,1.28,0,0,1,1.27.88,3,3,0,0,1,.23,1.18c0,1.91.4,3.79.46,5.69C152,19.46,152,19.76,152.06,20.06Zm-14.68-1.31a25.22,25.22,0,0,1-.08,5.76c0,.16-.07.32-.11.49-.34,1.25-.59,1.45-1.88,1.44-.68,0-1.37,0-2.05,0s-.88-.33-.9-1a20.48,20.48,0,0,1,.46-3.48,13.15,13.15,0,0,0,.19-1.89c0-.2.08-.52-.18-.56s-.22.29-.27.48c-.35,1.27-.5,2.59-.79,3.87a9.63,9.63,0,0,1-.49,1.58,1.52,1.52,0,0,1-1.57,1c-.63,0-1.27,0-1.9,0a1.05,1.05,0,0,1-1.18-.8,9.66,9.66,0,0,1-.53-3.1,43.84,43.84,0,0,1,.23-8.26,7.41,7.41,0,0,1,.61-2.06,1.25,1.25,0,0,1,1.24-.77c.67,0,1.34,0,2,0,.87,0,1.16.41,1,1.27a28.34,28.34,0,0,0-.53,3.06,2,2,0,0,0,0,.35c0,.1,0,.27.12.28s.16-.14.18-.25c.14-.61.26-1.21.41-1.81a7.5,7.5,0,0,1,.81-2,1.57,1.57,0,0,1,1.52-.87c.66,0,1.34,0,2,0a1.23,1.23,0,0,1,1.38,1,10.83,10.83,0,0,1,.28,2.89C137.4,16.51,137.38,17.63,137.38,18.75ZM130.91,2.83a1.47,1.47,0,0,1,.33,2.22,7.38,7.38,0,0,0-.59.87.63.63,0,0,0,0,.75c.17.24.42.2.68.17a1.71,1.71,0,0,0,1.31-1c.2-.35.35-.73.52-1.09a.84.84,0,0,1,1.43-.33c1.26,1.24,2.07,3,.44,4.64a4.11,4.11,0,0,1-4.61,1,4.13,4.13,0,0,1-2.64-3.9,6.12,6.12,0,0,1,.12-1.54,2.62,2.62,0,0,1,1.54-2.06A1.59,1.59,0,0,1,130.91,2.83ZM116.6,11.5H118c.93,0,1.23.28,1.26,1.22a11.89,11.89,0,0,0,.29,2.59,3.82,3.82,0,0,0,.35,1c.06.12.13.26.29.25s.21-.15.25-.28a6,6,0,0,0,.31-1.92c0-.59,0-1.17,0-1.76,0-.8.33-1.08,1.11-1.08h2.31c1,0,1.39.36,1.41,1.42a19,19,0,0,1-.65,5.36,12.4,12.4,0,0,1-3.64,6.29,8.33,8.33,0,0,1-5.82,2.17c-.6,0-.88-.21-1-.8a24.28,24.28,0,0,1-.07-3.91c0-.54.48-.85,1.07-.81a5.24,5.24,0,0,1,1.36.29,2.84,2.84,0,0,0,1.38.21.61.61,0,0,0,.56-.55.58.58,0,0,0-.34-.66c-.28-.15-.55-.32-.84-.45a6,6,0,0,1-3.41-4.77A9.69,9.69,0,0,1,114,12.5c.07-.75.36-1,1.11-1Zm-6.19.07a6.08,6.08,0,0,0-1.59-.14c-1.56.07-3.09.32-4.65.31a1.49,1.49,0,0,0-1.56,1.61c0,.63,0,1.27,0,1.9-.08,1.92-.31,3.83-.25,5.76,0,.73,0,1.47,0,2.2a5.94,5.94,0,0,0,.53,2.38,1.45,1.45,0,0,0,1.41.86c.85,0,1.7,0,2.56,0s1.23-.32,1.16-1.29a14.82,14.82,0,0,0-.41-1.75,2,2,0,0,1,1.09-2.57q.87-.54,1.77-1a5,5,0,0,0,2.71-4C113.38,13.56,112.41,12,110.41,11.57Zm-2.23,4.64a2.34,2.34,0,0,1-.86,1.06,3.21,3.21,0,0,1,.41-2.37c.18-.31.39-.21.52.06A1.41,1.41,0,0,1,108.18,16.21ZM102,25.43c-.88-1.08-1.52-2.15-1.15-3.27a15,15,0,0,0-.71-5.37A10.87,10.87,0,0,0,97.43,12a3,3,0,0,0-4.34,0,7.66,7.66,0,0,0-1.26,1.62,15.68,15.68,0,0,0-2,9.4,1.76,1.76,0,0,1-.35,1.26c-.35.46-.68.92-1,1.4a4.4,4.4,0,0,0-.5,3.62,3.56,3.56,0,0,0,4.24,2.42,2.29,2.29,0,0,0,1.4-.61,1,1,0,0,0-.23-1.76,3.59,3.59,0,0,1-.9-.64,1.42,1.42,0,0,1-.18-1.5c.28-.47.72-.29,1.08-.17a5.63,5.63,0,0,0,3.88,0,.88.88,0,0,1,1.07.16,1.27,1.27,0,0,1,.1,1.2,1.13,1.13,0,0,1-.36.48,3.86,3.86,0,0,1-.88.56.83.83,0,0,0-.47,1,1.36,1.36,0,0,0,.71.93,4,4,0,0,0,4.79-1A4.17,4.17,0,0,0,102,25.43Zm-5.68-3.85a1,1,0,0,1-1.46.86.66.66,0,0,1-.45-.49,8,8,0,0,1-.13-1.43,8.89,8.89,0,0,1,.44-3c.12-.3.21-.72.6-.71s.46.42.57.7A7.9,7.9,0,0,1,96.27,21.58ZM76.68,20.16a25.11,25.11,0,0,1,.5-6.24,6.86,6.86,0,0,1,.66-1.73,1.52,1.52,0,0,1,1.5-.88c.64,0,1.27,0,1.91,0,.85,0,1.23.43,1.08,1.28s-.39,1.66-.57,2.49a7.13,7.13,0,0,0-.17,1.29c0,.35.15.49.47.51h.25c1.43-.08,1.69-.44,1.27-1.8-.26-.81-.57-1.61-.78-2.43a1,1,0,0,1,1-1.33c.93,0,1.87,0,2.81,0a1.26,1.26,0,0,1,1.11.73,6.31,6.31,0,0,1,.72,2.39,25,25,0,0,1-.44,9.7l-.12.39c-.57,1.81-.72,1.92-2.59,1.92H84c-.71,0-1-.35-.88-1.06s.37-1.42.56-2.13a6.8,6.8,0,0,0,.21-1.74c0-.36,0-.75-.39-.9a1.19,1.19,0,0,0-1.15.13,1.18,1.18,0,0,0-.51.89,5.28,5.28,0,0,0,.27,2.61,3.94,3.94,0,0,1,.28,1.22c0,.66-.22,1-.89,1H78.56a1.1,1.1,0,0,1-1.28-.88,8.19,8.19,0,0,1-.48-2.4C76.72,22.16,76.66,21.16,76.68,20.16Zm-4.59-7.47a4.8,4.8,0,0,0-1-.94,1.84,1.84,0,0,0-2.28-.1,5.61,5.61,0,0,0-1.23,1.1A14.68,14.68,0,0,0,64.13,24.4a4.24,4.24,0,0,0,.4,1.44.9.9,0,0,0,.76.59c1.19,0,2.37,0,3.56,0,.41,0,.55-.26.55-.63a4.36,4.36,0,0,0-.28-1.47,4.36,4.36,0,0,1-.28-1.52.56.56,0,0,1,.32-.57,1.52,1.52,0,0,1,1.45,0c.41.27.22.73.2,1.12a2.1,2.1,0,0,1-.06.24c-.16.62-.35,1.23-.47,1.85s.11,1,.82,1h1.56c.52,0,1,0,1.56,0a.93.93,0,0,0,.92-.57,2.87,2.87,0,0,0,.24-.82A15.65,15.65,0,0,0,72.09,12.69Zm-2.21,5.9c-.71,0-.86-.21-.69-.86a3.88,3.88,0,0,1,.37-1c.18-.31.38-.33.57-.05a2.58,2.58,0,0,1,.49,1.4C70.63,18.62,70.17,18.54,69.88,18.59ZM63,20.06a27,27,0,0,1-.51,5.53.9.9,0,0,1-.87.82c-1.18.07-2.35.05-3.52,0-.72,0-1-.65-.75-1.47a28.05,28.05,0,0,0,.89-2.87,13.64,13.64,0,0,0,.34-2.78.46.46,0,0,0,0-.2c0-.16,0-.38-.24-.37s-.23.21-.25.39c0,.5,0,1-.1,1.5a3.72,3.72,0,0,1-.7,1.95,1.85,1.85,0,0,1-1.53.74c-.52,0-.76-.34-.89-.8a27.08,27.08,0,0,1-.49-2.81c0-.25-.1-.5-.16-.74s-.08-.24-.23-.2-.11.15-.11.25a9.63,9.63,0,0,0,.15,2.4c.22,1.25.47,2.49.69,3.74.17.93-.13,1.28-1.08,1.28H51.27a1,1,0,0,1-1.13-.77,11.21,11.21,0,0,1-.6-3.09,42.48,42.48,0,0,1,.24-7.81c0-.57.06-1.14.08-1.71,0-1.18.47-1.64,1.64-1.65.57,0,1.14,0,1.71,0a1.59,1.59,0,0,1,1.52.86,13.49,13.49,0,0,1,1,2.2c.06.17.13.34.2.51s.1.28.25.28.18-.17.23-.29a14.81,14.81,0,0,1,1.08-2.53,1.91,1.91,0,0,1,1.86-1c.57,0,1.14,0,1.71,0a1.25,1.25,0,0,1,1.2.83,2.8,2.8,0,0,1,.25,1.17c0,1.95.4,3.86.48,5.8C63,19.49,63,19.77,63,20.06ZM5,33.89a.22.22,0,0,0,.13-.06l.59-.33.1,0a.16.16,0,0,1,.22.12s0,.09,0,.13c0,.46.11.91.16,1.36a.76.76,0,0,0,.31.56l1.12.86s0,0,.07.06a.15.15,0,0,1,0,.26l-.08.05-1.32.74a.09.09,0,0,0-.06.06.25.25,0,0,0,0,.07c.12.19.23.38.35.56a2.16,2.16,0,0,1,.17.34.86.86,0,0,1,.05.23l.12,1.71a.78.78,0,0,1-.15.53.14.14,0,0,0,0,.14c0,.14.07.29.1.43s0,.11.11.13a.84.84,0,0,1,.34.28.92.92,0,0,1,.14.32c.15.59.3,1.19.44,1.79,0,.18.1.37.14.55a.84.84,0,0,1-.23.8.87.87,0,0,1-1.45-.34c-.06-.22-.11-.45-.17-.67-.14-.56-.27-1.12-.41-1.68a.94.94,0,0,1,0-.5.73.73,0,0,1,.15-.29.12.12,0,0,0,0-.14c0-.17-.09-.34-.13-.52a.15.15,0,0,0-.06-.1.77.77,0,0,1-.38-.66L5.3,39.28A.71.71,0,0,0,5.2,39c-.27-.42-.52-.86-.79-1.27-.16-.24-.3-.49-.44-.73s-.3-.54-.46-.8a2.91,2.91,0,0,1-.23-.55c-.16-.52-.32-1-.47-1.57a2.64,2.64,0,0,1-.07-.3.71.71,0,0,1,0-.25l.33-1.71a.75.75,0,0,1,.21-.39.14.14,0,0,0,0-.17c-.06-.23-.12-.47-.17-.7a.19.19,0,0,0-.1-.13.85.85,0,0,1-.49-.6L2,27.48a.83.83,0,0,1,.3-.89.85.85,0,0,1,1.17.08.9.9,0,0,1,.23.43l.39,1.6c.06.21.11.43.16.65a.88.88,0,0,1-.15.8.15.15,0,0,0,0,.13l.24,1a.28.28,0,0,0,.08.15.72.72,0,0,1,.21.69.82.82,0,0,0,0,.41c.1.41.2.83.31,1.25A.33.33,0,0,0,5,33.89Zm7.36,2.9-.08.13-.75,1.24a.84.84,0,0,1-.27.29.73.73,0,0,1-.66.06,1,1,0,0,1-.32-.19L8.41,36.9,6.63,35.53a.86.86,0,0,1-.14-.13.5.5,0,0,1-.09-.25l-.21-1.62c-.12-1-.25-2-.37-3a1.31,1.31,0,0,1,0-.28.71.71,0,0,1,.32-.56.7.7,0,0,1,.44-.14H8.15a0,0,0,0,0,0,0s0,0,0,0L8,29.41l-.28-.22a1.71,1.71,0,0,1-.62-1.14l0-.28a1.69,1.69,0,0,0-.2-.76c-.08-.17-.07-.23.1-.33l1.07-.61L8.17,26a.16.16,0,0,1,.22.07,2.33,2.33,0,0,1,.14.33,1.7,1.7,0,0,1,.09.5,1,1,0,0,1,0,.17,1.5,1.5,0,0,0,.65,1.21l.25.17a2.36,2.36,0,0,1,.58.6,1.9,1.9,0,0,1,.3.95c0,.13,0,.26,0,.39a1.73,1.73,0,0,0,.14.44,1.53,1.53,0,0,0,.52.58,3.33,3.33,0,0,1,.46.36A1.94,1.94,0,0,1,12.16,33c0,.11,0,.23,0,.34a1.47,1.47,0,0,0,.24.73,1.56,1.56,0,0,0,.43.42l.2.15a1.88,1.88,0,0,1,.65.72,2.42,2.42,0,0,1,.23.75l0,.34a1.58,1.58,0,0,0,.2.67,1.44,1.44,0,0,0,.49.52l.21.14a2,2,0,0,1,.54.57.16.16,0,0,1-.07.25l-.91.52-.23.14c-.15.08-.21.06-.3-.08a2.17,2.17,0,0,0-.31-.37,1.57,1.57,0,0,0-.25-.2,2.25,2.25,0,0,1-.45-.35,1.77,1.77,0,0,1-.44-.86c0-.15,0-.3-.07-.46A.27.27,0,0,0,12.33,36.79Zm-8.65,0A1.62,1.62,0,0,1,.9,38.4a1.62,1.62,0,1,1,2.78-1.66ZM41.85,18.26A3.45,3.45,0,1,0,40.74,23,3.47,3.47,0,0,0,41.85,18.26Zm-4.79,3a2.19,2.19,0,0,1,3.71-2.32,2.19,2.19,0,1,1-3.71,2.32ZM36.79,9.81a3.46,3.46,0,1,0-1.22,4.7A3.47,3.47,0,0,0,36.79,9.81Zm-4.88,2.84a2.19,2.19,0,1,1,3,.79A2.18,2.18,0,0,1,31.91,12.65Zm9.62,3.93c-.12-.2-.24-.4-.34-.61a3.69,3.69,0,0,1-.34-2,3.78,3.78,0,0,1,.13-.67c.06-.19,0-.16-.09-.24l-.26-.17-.22-.13-.15-.06a.41.41,0,0,0-.47.16,1.82,1.82,0,0,0-.15.27,4.37,4.37,0,0,0-.37,1c0,.16-.07.32-.1.48a2.45,2.45,0,0,1-.76,1.34,3.37,3.37,0,0,1-.58.41,10.32,10.32,0,0,1-1.19.62l-.68.31c-.22.1-.43.2-.66.28a1.07,1.07,0,0,1-.27.07,1,1,0,0,1-1-.35.75.75,0,0,1-.19-.4,1,1,0,0,1,0-.35.88.88,0,0,1,.39-.69,5,5,0,0,1,.81-.46c.31-.14.62-.26.93-.39a2.47,2.47,0,0,0,.46-.23,1.68,1.68,0,0,0,.69-.78,3.12,3.12,0,0,0,.19-.59q.08-.4.12-.81a6.17,6.17,0,0,1,.14-.86,3.22,3.22,0,0,1,.4-1,1.76,1.76,0,0,1,.64-.63,1.34,1.34,0,0,1,.78-.2,5.83,5.83,0,0,1,2,.42,5.39,5.39,0,0,1,1.52,1,2,2,0,0,1,.49.74.53.53,0,0,1,0,.41c-.18.44-.35.88-.56,1.31a1.42,1.42,0,0,0,0,1.27,3.11,3.11,0,0,0,.22.4c.14.24.29.47.43.7a1.65,1.65,0,0,1,.18.41,1,1,0,0,1-.35,1,.73.73,0,0,1-.65.15,1.11,1.11,0,0,1-.49-.26,2.61,2.61,0,0,1-.37-.44ZM46,15.11a1.7,1.7,0,1,1,.6-2.35A1.7,1.7,0,0,1,46,15.11Zm-34.9-9.5v0a7.38,7.38,0,0,1,.3.78h0a.48.48,0,0,0,.19.27l1.08.84c.85.66,1.7,1.33,2.53,2,.44.36.86.73,1.27,1.12.16.16.32.32.47.49a.89.89,0,0,1,.2.4.7.7,0,0,1-.07.43,1,1,0,0,1-.26.34.71.71,0,0,1-.56.17,1.45,1.45,0,0,1-.53-.18l-.17-.12c-.56-.45-1.15-.86-1.73-1.27l-1.15-.82a.29.29,0,0,0-.13-.08.16.16,0,0,0,0,.12c.35,1,.68,2.11,1,3.17.06.2.12.39.17.59l0,.08a.78.78,0,0,1-.22.77,1.13,1.13,0,0,1-.41.27.78.78,0,0,1-.81-.15,1.36,1.36,0,0,1-.27-.36c-.13-.25-.25-.52-.37-.78l-.55-1.2-.62-1.35c-.19-.41-.38-.83-.58-1.24L9.44,8.89c-.15-.3-.31-.6-.47-.9s-.45-.74-.68-1.1a10.11,10.11,0,0,1-.56-1,3.09,3.09,0,0,1-.14-.32,1.38,1.38,0,0,1,0-1,1.8,1.8,0,0,1,.59-.77,1.28,1.28,0,0,1,.72-.27h.28l2.1.21a17.37,17.37,0,0,1,1.89.33l.1,0a.82.82,0,0,1,.47,1.21.67.67,0,0,1-.38.3,1.88,1.88,0,0,1-.7.09L11.18,5.6Zm4.08,1.13L16,7.88c.15.22.33.42.48.64s.37.53.56.79l1,1.35.12.16a.64.64,0,0,1,.08.14.4.4,0,0,1-.13.53.41.41,0,0,1-.55-.08l-.25-.31-.81-1-.72-.91L15,8.23c-.12-.15-.23-.3-.35-.44l-.75-1c-.17-.21-.33-.42-.5-.62L13.3,6.1a.22.22,0,0,1,.1-.32l.09,0a.64.64,0,0,0,.35-.3.41.41,0,0,1,.05-.09.21.21,0,0,1,.3,0l0,.06.22.3.73,1ZM7.55,5.92c.25.34.48.68.7,1A9.72,9.72,0,0,1,8.8,8l.09.24A.71.71,0,0,1,8.72,9a1.8,1.8,0,0,1-.53.37.79.79,0,0,1-.73,0,3.15,3.15,0,0,1-.76-.6A5.27,5.27,0,0,1,5.48,6.53,4.34,4.34,0,0,1,5.39,6a.54.54,0,0,1,.15-.45,2.21,2.21,0,0,1,.77-.51L6.49,5a.46.46,0,0,1,.44.14l.28.35ZM8.86,1.21A1.65,1.65,0,1,1,6.56.8,1.65,1.65,0,0,1,8.86,1.21ZM12.6,3l.43.57.05.07a.17.17,0,0,1-.14.24h-.08c-.38-.07-.77-.11-1.15-.15h-.1a.27.27,0,0,1-.14-.07,4.14,4.14,0,0,1-.39-.46.68.68,0,0,1,.11-.87.42.42,0,0,1,.22-.11.7.7,0,0,1,.76.25c.15.18.29.36.43.55Z" style="fill: #2b4307"/>
    <path d="M171.76,39a9.13,9.13,0,0,0-3-5.31,3.28,3.28,0,0,0-4.39,0,7,7,0,0,0-2,2.8,2.19,2.19,0,0,1-2.12,1.29.76.76,0,0,1-.79-.83,5.8,5.8,0,0,1,.29-1.47,5.7,5.7,0,0,0,.3-1.36c0-.43-.19-.65-.64-.63l-1.75.06c-.81,0-1,.2-1.31,1a15.15,15.15,0,0,0-.63,4.68,18.35,18.35,0,0,0,.21,3.14,6.43,6.43,0,0,0,.74,2.42.81.81,0,0,0,.82.46c.71-.05,1.43-.06,2.15-.09s.81-.26.61-.85-.39-1-.54-1.56a2.21,2.21,0,0,1,.65-2.38.72.72,0,0,1,.71-.26.63.63,0,0,1,.44.61c0,.22.1.45.11.68a3.86,3.86,0,0,0,1.76,3,4.54,4.54,0,0,0,3.24.67c.69,0,1.17,0,1.63-.07a3.71,3.71,0,0,0,3.32-2.43A6.13,6.13,0,0,0,171.76,39Zm-3.53,2.12a1,1,0,0,1-.79.93c-1.06.25-2.11.08-2.06-1.41a5.06,5.06,0,0,0,0-.55,8.85,8.85,0,0,1,.47-3.54.85.85,0,0,1,.73-.66.9.9,0,0,1,.9.5,5.06,5.06,0,0,1,.61,2A8.61,8.61,0,0,1,168.23,41.15Zm-13.89-1.38A9.47,9.47,0,0,0,151,33.69a3,3,0,0,0-2.62-.67,4.32,4.32,0,0,0-2.73,2.12,9.65,9.65,0,0,0-1.48,6.17,4.13,4.13,0,0,0,2.43,3.59,5.77,5.77,0,0,0,2.91.27c.43,0,.87,0,1.3-.07a3.81,3.81,0,0,0,3.08-1.9A4.89,4.89,0,0,0,154.34,39.77Zm-3.65,1.56a1,1,0,0,1-1,.91l-.55,0a1.16,1.16,0,0,1-1.32-1.13c0-.27,0-.53,0-.8a10.88,10.88,0,0,1,.32-3.36c0-.11.07-.22.11-.33a.85.85,0,0,1,1.58-.15,4.35,4.35,0,0,1,.66,1.81A9.3,9.3,0,0,1,150.69,41.33Zm-8.2-3a12.4,12.4,0,0,0-.18-2.3,6.84,6.84,0,0,0-.76-2.42,1,1,0,0,0-1-.52c-.72,0-1.44,0-2.16.08-.87,0-1,.29-.67,1.1a18.41,18.41,0,0,1,.77,1.9c.26.78.09,1.18-.58,1.48a3.17,3.17,0,0,1-1.58.19.71.71,0,0,1-.66-.8,5.58,5.58,0,0,1,.12-1c.13-.65.29-1.3.44-2s0-.86-.67-.84c-.5,0-1,.07-1.51,0a1.35,1.35,0,0,0-1.4,1,6.15,6.15,0,0,0-.36,1.1,25.29,25.29,0,0,0,0,7.72,4.44,4.44,0,0,0,.43,1.53.72.72,0,0,0,.78.47c.87-.06,1.74-.07,2.61-.1.55,0,.61-.09.51-.62a1.87,1.87,0,0,0-.17-.52,4.61,4.61,0,0,1-.42-2.19,1.55,1.55,0,0,1,.7-1.37,1.48,1.48,0,0,1,1.53-.15,1.21,1.21,0,0,1,.59,1.18,6.8,6.8,0,0,1-.2,1.63c-.09.41-.21.81-.34,1.21-.19.6-.09.76.53.74l1.45,0c1.13,0,1.14-.05,1.52-1.13a.32.32,0,0,0,0-.09A14.31,14.31,0,0,0,142.49,38.34Zm-22,1.22a28.41,28.41,0,0,0,.22,3.47,7,7,0,0,0,.37,1.5.78.78,0,0,0,.88.58,10.73,10.73,0,0,1,1.7,0,1.12,1.12,0,0,0,1.2-.84,12.07,12.07,0,0,0,.53-2.29,14.81,14.81,0,0,1,.49-2.29c.1-.27.25-.55.6-.51a.64.64,0,0,1,.56.67,9.67,9.67,0,0,1-.1,1.94,20.87,20.87,0,0,0-.35,2.62c0,.4.17.58.58.56.78,0,1.57-.06,2.36-.07a.58.58,0,0,0,.57-.39,7.79,7.79,0,0,0,.41-3c0-1.19-.19-2.36-.23-3.55s-.13-2.2-.22-3.29a2.94,2.94,0,0,0-.17-.78.92.92,0,0,0-1-.7,10.79,10.79,0,0,1-1.61.06,1.39,1.39,0,0,0-1.37.81,9.27,9.27,0,0,0-.86,2.86c-.07.38-.24.66-.63.64s-.47-.39-.5-.74a11.12,11.12,0,0,1,.37-2.76c.09-.51,0-.69-.56-.68l-1.51,0c-.92,0-1.06.15-1.33,1a5.36,5.36,0,0,0-.14.54A16.48,16.48,0,0,0,120.52,39.56Zm-17.65-1a12.37,12.37,0,0,0,.47,3.81A4.19,4.19,0,0,0,105,44.89a4,4,0,0,0,4,.16,2.91,2.91,0,0,1,2.4,0,4.32,4.32,0,0,0,2.75.22l1.26-.29a1.07,1.07,0,0,1,1.28,1c.1,1-.48,1.39-1.2,1.76-.19.09-.47.13-.46.4a.71.71,0,0,0,.48.59,3.39,3.39,0,0,0,2,.21,2.58,2.58,0,0,0,2.4-3.15,3.07,3.07,0,0,0-1-1.78,2.61,2.61,0,0,1-1-2.33c.11-.81.22-1.62.25-2.43A15.54,15.54,0,0,0,118,36a6.14,6.14,0,0,0-.68-2.19,1,1,0,0,0-.87-.57l-1.91,0c-.43,0-.55.23-.52.66.08.9.38,1.75.54,2.64a10.44,10.44,0,0,1,.13,4.31,1.42,1.42,0,0,1-.6.94,1.46,1.46,0,0,1-2.22-1.17,13.7,13.7,0,0,1,.09-4.38,12.42,12.42,0,0,0,.3-2.43c0-.34-.15-.53-.52-.53l-2.56,0a.64.64,0,0,0-.65.46,3,3,0,0,0-.17,1.23c.15,1,.33,2,.5,3a7.52,7.52,0,0,1,0,3.27,1,1,0,0,1-1,.85,1.41,1.41,0,0,1-1.53-1.34,13.51,13.51,0,0,1,.11-5.07c.1-.51.19-1,.25-1.53s-.14-.78-.73-.77-1.08.05-1.61,0a.86.86,0,0,0-.83.46,3.34,3.34,0,0,0-.34.77A12.82,12.82,0,0,0,102.87,38.53Zm-1.57,2.34a6.34,6.34,0,0,0-1.58-2,1,1,0,0,1-.09-1.62,6.78,6.78,0,0,0,.54-.78,2,2,0,0,0-1.65-3,37,37,0,0,0-4.71,0,1.27,1.27,0,0,0-.47.13,1.9,1.9,0,0,0-1.09,2c0,1.19,0,2.37,0,3.55a43.05,43.05,0,0,0,0,4.4,2.89,2.89,0,0,0,.23.86c.28.66.48.78,1.19.75L96.13,45a19.31,19.31,0,0,0,3-.22,3,3,0,0,0,2-1.12A2.71,2.71,0,0,0,101.3,40.87ZM96.38,35c.58,0,.78.22.8.89s-.38,1.41-1,1.43-.77-.63-.76-1.38S95.76,35.05,96.38,35Zm1.47,7.38a1,1,0,0,1-.83.64.83.83,0,0,1-.93-.45,2.35,2.35,0,0,1-.32-2.09.88.88,0,0,1,1.51-.38A2.2,2.2,0,0,1,98,41.71C98,41.91,97.92,42.17,97.85,42.42Zm-7.68-2.64a11.49,11.49,0,0,0-3.59-6,1.6,1.6,0,0,0-1.69-.48,3.63,3.63,0,0,0-1.44,1.06,11.63,11.63,0,0,0-2.67,5,10.7,10.7,0,0,0,0,5c.18.69.35.8,1,.78L84.39,45c.3,0,.46,0,.35-.43a15.92,15.92,0,0,1-.58-1.85,1,1,0,0,1,.52-1.18A2.1,2.1,0,0,1,86,41.39a1.05,1.05,0,0,1,.93,1.33c-.09.6-.3,1.16-.44,1.74s0,.5.42.47.9,0,1.35,0,.87-.05,1.3,0a.68.68,0,0,0,.79-.65A10.58,10.58,0,0,0,90.17,39.78Zm-4.31-.55a3.38,3.38,0,0,1-.45,0c-1,0-1.24-.28-1-1.22a2.18,2.18,0,0,1,.48-1,.6.6,0,0,1,1-.06,2.43,2.43,0,0,1,.77,1.47C86.66,38.75,86.28,39.15,85.86,39.23Zm-10.93-6c-.6,0-1.21,0-1.81.07a6.91,6.91,0,0,0-2.64.67.81.81,0,0,0-.49.84c0,.54.05,1.07,0,1.61,0,.29-.19.67.1.82s.55-.21.76-.43a7.63,7.63,0,0,1,1.2-1.14c.64-.4,1.17-.14,1.18.61a8.13,8.13,0,0,1-.1,1.3,19.4,19.4,0,0,0-.27,4.87,7.12,7.12,0,0,0,.4,2c.12.32.26.66.73.63,1-.06,2.08-.07,3.11-.12.44,0,.62-.29.48-.71s-.27-.72-.38-1.09a29,29,0,0,1-.94-6.81c-.05-.9.43-1.18,1.24-.77a7.2,7.2,0,0,1,1.36,1.1c.15.13.26.43.51.29s.2-.37.2-.59c0-.62,0-1.23.09-1.85a.77.77,0,0,0-.44-.77,3.66,3.66,0,0,0-1.12-.4A14.28,14.28,0,0,0,74.93,33.22ZM62,45.06a7.6,7.6,0,0,1,1,0c.88,0,.81-.27.64-.9l-.09-.23a9.15,9.15,0,0,1-.74-4.29,5.53,5.53,0,0,1,.41-1.84A1,1,0,0,1,64,37c.45-.06.67.24.87.55a5.58,5.58,0,0,1,.74,2.52,13.25,13.25,0,0,1-.38,4.06c-.12.53.06.76.6.75s1.24-.07,1.85-.05a.91.91,0,0,0,.91-.58,3,3,0,0,0,.25-.76A11,11,0,0,0,68.34,38a8.69,8.69,0,0,0-2.88-4.41,2.35,2.35,0,0,0-2.27-.39,4,4,0,0,0-2,1.82,11.47,11.47,0,0,0-1.72,7.37A6.59,6.59,0,0,0,60,44.56a.81.81,0,0,0,.91.54A9.13,9.13,0,0,1,62,45.06Zm-4.39-5.84a9.52,9.52,0,0,0-2.85-5.28,3.33,3.33,0,0,0-4.91.19,9.22,9.22,0,0,0-2.27,7.74,4,4,0,0,0,3.24,3.28,10.13,10.13,0,0,0,1.81,0c.61,0,1.08,0,1.54-.06A3.76,3.76,0,0,0,57.34,43,5.69,5.69,0,0,0,57.58,39.22ZM54.05,41c-.13.94-.41,1.22-1.39,1.25-1.27.09-1.49-.58-1.53-1.61a11.91,11.91,0,0,1,.31-3.46,2.42,2.42,0,0,1,.27-.69.83.83,0,0,1,1.52,0,5.14,5.14,0,0,1,.69,2.23A10.12,10.12,0,0,1,54.05,41Zm-8.51-1.53a18.24,18.24,0,0,0-.32-3.57A3.17,3.17,0,0,0,43,33.25a8.55,8.55,0,0,0-4.68,0,3,3,0,0,0-2.19,2.14,16.27,16.27,0,0,0-.24,5,10.19,10.19,0,0,0,.19,2.19,8.63,8.63,0,0,0,.64,2c.14.25.3.49.64.48L39.52,45a.41.41,0,0,0,.43-.54c-.07-.51-.18-1-.29-1.52a16.13,16.13,0,0,1-.52-5.09,1.66,1.66,0,0,1,1.38-1.61,1.56,1.56,0,0,1,1.53,1.31,12.78,12.78,0,0,1,0,4.23,20,20,0,0,0-.38,2.56c0,.43.14.62.59.57a9.51,9.51,0,0,1,1.6,0,1.14,1.14,0,0,0,1.19-.81,5.53,5.53,0,0,0,.31-1A12.41,12.41,0,0,0,45.54,39.48Z" style="fill: #008838"/>
    <path d="M163.72,16.69a9.8,9.8,0,0,0-3-4.52,3,3,0,0,0-3.64-.23,5.13,5.13,0,0,0-1.54,1.57A11.82,11.82,0,0,0,153.68,19a8.89,8.89,0,0,0,.31,4.16,4.45,4.45,0,0,0,3.5,3.1,9.68,9.68,0,0,0,1.8,0l1.16-.06a4.21,4.21,0,0,0,4-3.47A10.65,10.65,0,0,0,163.72,16.69Zm-3.09,4.48a1.29,1.29,0,0,1-1.34,1.47c-.94.08-1.54-.32-1.64-1.21a15,15,0,0,1,.21-5.13c.13-.51.3-1.08.92-1.12s.9.5,1.09,1a12.18,12.18,0,0,1,.71,3.82C160.6,20.4,160.63,20.78,160.63,21.17Zm-9.07-.77c0-.67,0-1.34-.05-2s-.19-1.35-.27-2c-.13-1.08-.24-2.16-.28-3.24,0-.84-.4-1.32-1.05-1.36a17.22,17.22,0,0,0-1.9,0,1.46,1.46,0,0,0-1.19.81,11.93,11.93,0,0,0-.94,2.21c-.14.38-.18.89-.72.91s-.64-.5-.81-.89a14.92,14.92,0,0,0-1.11-2.36,1.11,1.11,0,0,0-.89-.56,10.12,10.12,0,0,0-2.2.05c-.69.1-.85.33-.87,1s0,1.51-.07,2.25a34.19,34.19,0,0,0,0,8.15,7.84,7.84,0,0,0,.55,2.23.64.64,0,0,0,.69.44c.82,0,1.64,0,2.46,0,.45,0,.62-.17.56-.6,0-.15,0-.3,0-.45-.29-1.3-.62-2.6-.79-3.92a6.09,6.09,0,0,1-.09-2.29.57.57,0,0,1,.45-.48.56.56,0,0,1,.59.3,2.07,2.07,0,0,1,.27.85c.16.88.3,1.78.48,2.66s.74,1,1.43.47a2.69,2.69,0,0,0,.84-1.66c.15-.69,0-1.41.16-2.09.09-.35.29-.64.69-.6a.66.66,0,0,1,.62.72,11.71,11.71,0,0,1-.21,2.95,25.7,25.7,0,0,1-.92,3.22c-.19.57,0,.84.6.83l2.87-.05c.67,0,.76-.09.87-.76A19.83,19.83,0,0,0,151.56,20.4Zm-14.78-5.25a9.78,9.78,0,0,0-.35-2.68.89.89,0,0,0-1-.7c-.69.06-1.38.07-2.06.08a1,1,0,0,0-.94.55,6.69,6.69,0,0,0-.82,2.25c-.13.62-.23,1.24-.38,1.86a.55.55,0,0,1-.63.45.53.53,0,0,1-.45-.58,7.92,7.92,0,0,1,0-1.46c.14-.75.26-1.51.35-2.27.07-.58-.05-.69-.63-.68s-1.24.08-1.86.06a.94.94,0,0,0-1,.73c-.08.22-.15.44-.21.67a21.74,21.74,0,0,0-.38,5.58c0,1,.12,2.07.18,3.1a11.85,11.85,0,0,0,.61,3.44.75.75,0,0,0,.86.58c.63-.05,1.27-.07,1.9-.07a1.08,1.08,0,0,0,1.09-.79,15.81,15.81,0,0,0,.68-3.18,17.77,17.77,0,0,1,.49-2.6c.12-.37.35-.58.75-.48s.46.41.48.74a12.62,12.62,0,0,1-.16,2.45c-.11,1-.24,1.92-.32,2.88-.06.66.16.86.8.84l1.95-.06c.77,0,.93-.18,1.14-.92a10.15,10.15,0,0,0,.29-2.68C137.19,19.91,136.84,17.59,136.78,15.15ZM128.21,6a3.64,3.64,0,0,0,.19,1.18,3.57,3.57,0,0,0,3.19,2.58,3.42,3.42,0,0,0,3.52-1.63,2.73,2.73,0,0,0-.91-3.61c-.35-.19-.6-.14-.74.27a6.91,6.91,0,0,1-.77,1.68,1.88,1.88,0,0,1-1.51.86,1,1,0,0,1-1.07-1.15,3.64,3.64,0,0,1,.75-1.51.83.83,0,0,0-.07-1.06,1.3,1.3,0,0,0-2.28.28A3.91,3.91,0,0,0,128.21,6ZM115,24.09h0c0,.6,0,1.2.07,1.81a.51.51,0,0,0,.61.54A8,8,0,0,0,122,23.3a13.2,13.2,0,0,0,2.69-6.45,18.89,18.89,0,0,0,.26-4c0-.85-.28-1.07-1.1-1s-1.48.07-2.21.07c-.49,0-.65.22-.64.68,0,.78,0,1.57,0,2.35a4.43,4.43,0,0,1-.29,1.62c-.27.64-.82.69-1.23.13a3.09,3.09,0,0,1-.46-1.05,9.92,9.92,0,0,1-.41-2.76c0-.42-.11-.84-.66-.83-1,0-2,.06-3.07.11a.58.58,0,0,0-.6.65,12.82,12.82,0,0,0,.2,2.4A5.78,5.78,0,0,0,117,19.27c.57.34,1.19.61,1.77.94a1,1,0,0,1,.5,1.24,1,1,0,0,1-1,.76,3,3,0,0,1-.85,0,13.34,13.34,0,0,0-1.86-.38c-.45,0-.66.17-.63.63S115,23.54,115,24.09Zm-5.67-12.24c-1.89,0-3.75.43-5.64.51a.87.87,0,0,0-.81.83,11.87,11.87,0,0,0,0,2.15c0,2-.22,3.94-.09,5.91,0,.5,0,1,0,1.5a7.8,7.8,0,0,0,.61,2.73,1,1,0,0,0,1.08.63c.79-.05,1.58-.06,2.36-.09s1-.15.84-1a2,2,0,0,0-.12-.48,6.38,6.38,0,0,1-.41-1.6,2.15,2.15,0,0,1,.86-2.2c.61-.42,1.2-.85,1.85-1.21a4.78,4.78,0,0,0,2.67-4.17A3.09,3.09,0,0,0,109.36,11.85Zm-.7,3.88a3,3,0,0,1-.86,1.71c-.17.17-.38.36-.67.23a.64.64,0,0,1-.36-.61c0-.15,0-.3,0-.45a3.33,3.33,0,0,1,.48-2,.68.68,0,0,1,1.24,0A1.54,1.54,0,0,1,108.66,15.73Zm-7.08,9.69c-.26-.3-.5-.62-.76-.93a2,2,0,0,1-.48-1.34c0-.58.13-1.16.08-1.53a16.73,16.73,0,0,0-1.36-6.15A8.59,8.59,0,0,0,97,12.33a2.55,2.55,0,0,0-4,.34,11,11,0,0,0-1.91,3.51,14.38,14.38,0,0,0-.82,6.5A2.73,2.73,0,0,1,89.64,25a6.68,6.68,0,0,0-1,1.57,3.3,3.3,0,0,0,2.88,4.86A2.79,2.79,0,0,0,93.27,31c.59-.4.56-.92,0-1.26a6,6,0,0,1-.6-.36c-.8-.54-.86-1.09-.71-2.08a.83.83,0,0,1,.9-.72,4.61,4.61,0,0,1,1.28.19,3.89,3.89,0,0,0,2.65-.07,3,3,0,0,1,1.33-.2.91.91,0,0,1,.86.59,1.85,1.85,0,0,1-.52,2.13c-.24.18-.5.34-.76.5-.44.28-.49.5-.2.94a1.28,1.28,0,0,0,.7.46,3.77,3.77,0,0,0,2.46-.07,2.68,2.68,0,0,0,1.82-2A3.94,3.94,0,0,0,101.58,25.42Zm-5-3.34a1.3,1.3,0,0,1-1.42.88,1.19,1.19,0,0,1-1.28-1,10,10,0,0,1,.19-4.22,2.48,2.48,0,0,1,.4-.91.78.78,0,0,1,1.42.05,5.57,5.57,0,0,1,.72,2.06,5.19,5.19,0,0,1,.13,1.45A4.27,4.27,0,0,1,96.6,22.08Zm-16.43,4,1.56,0c.33,0,.45-.16.41-.47a5.07,5.07,0,0,0-.09-.54,15.93,15.93,0,0,1-.55-1.82,4.49,4.49,0,0,1,.07-2,1.62,1.62,0,0,1,1.81-1.1c.67.11,1,.57,1,1.44a8.24,8.24,0,0,1-.1,1.4,23.93,23.93,0,0,1-.53,2.34c-.13.57,0,.7.56.69l1.7-.06c1.06,0,1.07-.05,1.44-1,0-.08,0-.16.08-.24a19.86,19.86,0,0,0,.75-6A24.73,24.73,0,0,0,88,14.88a7.17,7.17,0,0,0-.82-2.71.92.92,0,0,0-.82-.57c-.89,0-1.78,0-2.66.1-.62,0-.83.36-.66,1a4.43,4.43,0,0,0,.17.47,24,24,0,0,1,.87,2.51,1.1,1.1,0,0,1-.65,1.44,3.21,3.21,0,0,1-1.46.29.88.88,0,0,1-.92-1c0-.33.06-.66.09-1,.11-.9.35-1.77.53-2.65.14-.71-.1-1-.81-1-.52,0-1,.06-1.56.05a1.32,1.32,0,0,0-1.36.89,10.64,10.64,0,0,0-.75,3.56,38.38,38.38,0,0,0,.28,7.5,7.06,7.06,0,0,0,.44,1.74.85.85,0,0,0,1,.61C79.3,26.08,79.74,26.1,80.17,26.08Zm-5.53-7.45a14,14,0,0,0-3.54-6.14c-1-1-1.78-1-2.8,0a12.91,12.91,0,0,0-2.73,4.29,14.58,14.58,0,0,0-1,5.43,9.51,9.51,0,0,0,.49,3.3.78.78,0,0,0,.9.6c.75-.06,1.5-.06,2.26-.09,1.11,0,1.18-.11.81-1.17a6.48,6.48,0,0,1-.47-2.09,1,1,0,0,1,.67-1,2.49,2.49,0,0,1,1.48-.08.85.85,0,0,1,.69.82,4.67,4.67,0,0,1-.1,1.49A6.66,6.66,0,0,0,71,25.54c0,.29.1.43.41.4.52,0,1,0,1.56-.05a11.29,11.29,0,0,1,1.3,0,.73.73,0,0,0,.86-.69l.09-.55A14.42,14.42,0,0,0,74.64,18.63ZM69.86,19c-1,0-1.31-.36-1.16-1.29a3.23,3.23,0,0,1,.49-1.35.63.63,0,0,1,1.09-.11A2.79,2.79,0,0,1,71,18.21C71,18.72,70.58,19,69.86,19Zm-7.31,1.39a26.09,26.09,0,0,0-.36-4.07,29.3,29.3,0,0,1-.28-3.24c0-.84-.4-1.32-1-1.36a17.22,17.22,0,0,0-1.9,0,1.47,1.47,0,0,0-1.2.81,12.61,12.61,0,0,0-.93,2.21c-.13.38-.18.89-.72.91s-.65-.5-.82-.89a12.58,12.58,0,0,0-1.1-2.35,1.12,1.12,0,0,0-.89-.57,11.33,11.33,0,0,0-2.1,0c-.79.08-1,.34-1,1.17s0,1.5-.08,2.25c-.11,1.5-.27,3-.25,4.5a35.88,35.88,0,0,0,.25,3.59,7.42,7.42,0,0,0,.54,2.18.65.65,0,0,0,.7.45c.82,0,1.64,0,2.46,0,.44,0,.62-.17.56-.6,0-.15,0-.3,0-.45a37.26,37.26,0,0,1-.79-3.92,6.08,6.08,0,0,1-.1-2.29.57.57,0,0,1,.45-.48.56.56,0,0,1,.59.29,1.81,1.81,0,0,1,.27.81c.16.88.29,1.77.48,2.66s.8,1.09,1.51.46a2.9,2.9,0,0,0,.77-1.6c.14-.64,0-1.3.13-1.94.07-.41.24-.78.72-.75s.6.4.62.82a12.13,12.13,0,0,1-.22,2.89,34,34,0,0,1-.93,3.28c-.14.5,0,.74.57.73l2.91-.05c.68,0,.77-.09.88-.76A22,22,0,0,0,62.55,20.43Z" style="fill: #93c254"/>
    <path d="M42.57,28.55l-.39-.17L27.39,21.89c-.26-.12-.48-.19-.47-.59.1-4.2.17-8.4.26-12.6,0-1.38.09-2.75.14-4.13h-.15a.75.75,0,0,0-.07.12c-2.2,5-4.41,10-6.57,15a.85.85,0,0,1-1,.58L6.67,20l-3.58-.12V20l.37.16L17.9,26.48c.91.4.91.4.89,1.42l-.27,12.87c0,1.07-.08,2.14-.11,3.21l.14,0,.27-.6Q22,36.07,25.27,28.72a.55.55,0,0,1,.63-.39c1.1,0,2.2,0,3.3.05l11.24.25,2.12.08ZM26.08,9.19a0,0,0,0,1,.08,0l-3.3,14.94s-.05.05-.08,0l-1.93-3a0,0,0,0,1,0,0Zm-6.4,17.07L7.78,21a0,0,0,1,1,0-.08l14.93,3.29a0,0,0,0,1,0,.08l-3,1.93Zm-.06,13.07a0,0,0,0,1-.08,0l3.29-14.94a0,0,0,0,1,.08,0l1.94,3a0,0,0,0,1,0,0ZM37.89,27.57,23,24.27a0,0,0,0,1,0-.08l3-1.93h0l11.9,5.23S37.94,27.58,37.89,27.57Z" style="fill: #008838"/>
    <path d="M33.47,28.48l.94,0A12.15,12.15,0,0,1,22.9,36.77c-.38,0-.76,0-1.14-.05l.39-.88.75,0A11.25,11.25,0,0,0,33.47,28.48Zm.68-3.85c0,.07,0,.15,0,.22l.89.39c0-.2,0-.41,0-.61a12.17,12.17,0,0,0-8-11.41c0,.32,0,.64,0,1A11.27,11.27,0,0,1,34.15,24.63Zm-22.5,0c0-.3,0-.59,0-.88l-.87-.38c0,.41-.07.83-.07,1.26A12.14,12.14,0,0,0,18.62,36c0-.32,0-.64,0-1A11.25,11.25,0,0,1,11.65,24.63ZM22.9,13.38h.36l.39-.89-.75,0a12.13,12.13,0,0,0-11.25,7.58l1,0A11.25,11.25,0,0,1,22.9,13.38Zm4.49,8.51.94.41L32.49,18,26.93,20.4c0,.3,0,.6,0,.9S27.13,21.77,27.39,21.89Zm-2.12,6.83-.42,1,4.66,4.53L27,28.35l-1.09,0A.55.55,0,0,0,25.27,28.72Zm-7.35-2.24-4.61,4.76,5.46-2.35c0-.33,0-.66,0-1C18.81,26.88,18.81,26.88,17.92,26.48Zm2.61-6.83.15-.36L16.28,15l2.23,5.18,1.06,0A.85.85,0,0,0,20.53,19.65Z" style="fill: #009de2"/>
    <path d="M41.65,16.53a5.54,5.54,0,0,1-.32-.59,3.49,3.49,0,0,1-.28-2,3.65,3.65,0,0,1,.13-.55l0-.13a.22.22,0,0,0-.09-.25c-.2-.13-.4-.28-.61-.39l-.19-.07a.57.57,0,0,0-.62.21l-.11.16a4.78,4.78,0,0,0-.48,1.2l-.12.49a2.13,2.13,0,0,1-.78,1.24,3.82,3.82,0,0,1-.92.57c-.43.21-.86.4-1.29.59-.26.12-.52.23-.8.33l-.21.05a.9.9,0,0,1-.87-.31.74.74,0,0,1-.14-.28.87.87,0,0,1,0-.36.74.74,0,0,1,.33-.55,4,4,0,0,1,.57-.32c.32-.16.66-.28,1-.41a3.93,3.93,0,0,0,.66-.3,1.91,1.91,0,0,0,.77-.87,2.53,2.53,0,0,0,.18-.55,8,8,0,0,0,.15-.83,5.43,5.43,0,0,1,.16-.88,3,3,0,0,1,.44-1,1.54,1.54,0,0,1,.49-.46,1.24,1.24,0,0,1,.75-.19,5.65,5.65,0,0,1,1.76.37,4.83,4.83,0,0,1,1.63,1,1.86,1.86,0,0,1,.44.67.39.39,0,0,1,0,.3c-.18.43-.36.86-.57,1.28a1.59,1.59,0,0,0-.05,1.41,3,3,0,0,0,.21.4l.42.72a1.39,1.39,0,0,1,.16.35.79.79,0,0,1-.25.83.61.61,0,0,1-.63.13,1,1,0,0,1-.33-.21,2,2,0,0,1-.34-.42C41.81,16.8,41.73,16.66,41.65,16.53Zm-5.12-6.7a3.28,3.28,0,1,0-1.13,4.51A3.3,3.3,0,0,0,36.53,9.83Zm-3.91-.4a2.36,2.36,0,1,1-1,3.24A2.35,2.35,0,0,1,32.62,9.43Zm3.43,12.31a3.28,3.28,0,1,0,1.12-4.51A3.29,3.29,0,0,0,36.05,21.74Zm4.83-2.91a2.36,2.36,0,1,1-3.23-.8A2.36,2.36,0,0,1,40.88,18.83Zm5.54-6a1.54,1.54,0,0,0-2.64,1.57,1.54,1.54,0,1,0,2.64-1.57Z" style="fill: #5db02f"/>
    <path d="M7.57,36.69l-.15.07-1.34.74-.1.06a0,0,0,0,0,0,.06.25.25,0,0,1,0,.07l.46.74a1.11,1.11,0,0,1,.17.54l.09,1.53s0,0,0,.08a.62.62,0,0,1-.17.48.12.12,0,0,0,0,.12c0,.22.11.45.16.68,0,0,0,.06.06.07h0a.73.73,0,0,1,.44.51c.18.77.37,1.54.55,2.31a.68.68,0,0,1-.16.65.66.66,0,0,1-.67.21.64.64,0,0,1-.51-.48c-.06-.21-.11-.42-.16-.63-.14-.57-.27-1.15-.41-1.71A.75.75,0,0,1,6,42.18l0,0a.43.43,0,0,0,.09-.1s0-.1,0-.15-.09-.4-.14-.6a.18.18,0,0,0-.09-.13.59.59,0,0,1-.33-.52c0-.46,0-.93-.08-1.39a.83.83,0,0,0-.11-.37c-.27-.43-.52-.86-.79-1.28s-.39-.67-.58-1c-.09-.15-.17-.32-.27-.47a3,3,0,0,1-.28-.7L3,34a2.56,2.56,0,0,1-.05-.27.54.54,0,0,1,0-.22c.11-.57.23-1.13.34-1.69a.64.64,0,0,1,.26-.4.08.08,0,0,0,0-.1c0-.13-.06-.26-.1-.4s-.09-.39-.14-.59c0,0,0-.06-.06-.07a.74.74,0,0,1-.51-.59c-.17-.74-.34-1.48-.52-2.22a.81.81,0,0,1,0-.41.67.67,0,0,1,.52-.48.7.7,0,0,1,.84.56c.05.22.11.44.16.66.13.54.25,1.08.38,1.62A.67.67,0,0,1,4,30v0a.19.19,0,0,0-.07.23c.09.36.18.72.26,1.07a.22.22,0,0,0,.08.13.56.56,0,0,1,.18.58,1.13,1.13,0,0,0,0,.45c.13.51.24,1,.36,1.51l0,.1s0,.05.07,0l.14-.08.72-.4,0,0s0,0,0,0a.45.45,0,0,1,0,.11L6,35.11a1,1,0,0,0,.36.65l1.05.82Zm4.88-.09a3.07,3.07,0,0,1,.07.42,4.11,4.11,0,0,0,.07.47,1.63,1.63,0,0,0,.24.54,2.05,2.05,0,0,0,.53.49,1.55,1.55,0,0,1,.39.33,2.26,2.26,0,0,1,.23.31s0,0,.07,0l0,0,1-.57s.06,0,.07-.06a1.67,1.67,0,0,0-.43-.49l-.25-.17A1.67,1.67,0,0,1,14,37.3a1.89,1.89,0,0,1-.23-.8c0-.12,0-.23,0-.35a1.84,1.84,0,0,0-.38-.95,1.88,1.88,0,0,0-.44-.4l-.2-.14a1.81,1.81,0,0,1-.44-.48,1.66,1.66,0,0,1-.24-.8c0-.14,0-.29,0-.43a1.79,1.79,0,0,0-.44-.93,2.27,2.27,0,0,0-.44-.38,1.09,1.09,0,0,1-.17-.13,1.58,1.58,0,0,1-.61-1c0-.12,0-.24,0-.36a1.79,1.79,0,0,0-.65-1.39,3,3,0,0,0-.34-.26,1.68,1.68,0,0,1-.76-1.37,2.44,2.44,0,0,0,0-.27,2,2,0,0,0-.18-.65.29.29,0,0,0-.1,0l-1,.58-.06,0s0,0,0,0a.05.05,0,0,0,0,0,2.08,2.08,0,0,1,.2.85c0,.06,0,.12,0,.18A1.64,1.64,0,0,0,8,29.1l.29.23a1.6,1.6,0,0,1,.27.25s.07.07.07.13a.33.33,0,0,1-.14,0H6.58a.59.59,0,0,0-.55.47,1.31,1.31,0,0,0,0,.28c0,.23,0,.46.08.7.14,1.28.29,2.56.44,3.84,0,.25,0,.24.2.38l2.57,2,1,.8a1.05,1.05,0,0,0,.29.17.6.6,0,0,0,.52-.08.91.91,0,0,0,.18-.21c.18-.29.36-.59.55-.88s.32-.53.5-.81A.69.69,0,0,1,12.45,36.6ZM1.61,36.33a1.45,1.45,0,1,0,2,.57A1.45,1.45,0,0,0,1.61,36.33Z" style="fill: #009de2"/>
    <path d="M10.87,5.38a.12.12,0,0,0,0,.09,3.56,3.56,0,0,1,.29.7l.12.33a.58.58,0,0,0,.22.31l1.21,1c.85.69,1.69,1.37,2.52,2.08.45.39.89.8,1.3,1.23l.21.23a.57.57,0,0,1,.13.21.5.5,0,0,1,0,.49,1,1,0,0,1-.15.2.59.59,0,0,1-.5.17,1,1,0,0,1-.44-.17.57.57,0,0,1-.16-.11c-.53-.44-1.08-.84-1.63-1.24L12.32,9.65l-.09-.07h0s0,0,0,0,0,.05,0,.07c.13.39.26.79.38,1.18.32,1,.61,2.06.9,3.1a.31.31,0,0,0,0,.08.63.63,0,0,1-.24.67,1.05,1.05,0,0,1-.31.18.57.57,0,0,1-.54-.08,1,1,0,0,1-.31-.38c-.17-.34-.31-.69-.46-1l-.48-1.09c-.19-.45-.39-.9-.59-1.35s-.39-.87-.59-1.3L9.51,8.6l-.38-.73c-.22-.4-.46-.79-.7-1.18s-.29-.52-.42-.8a3.92,3.92,0,0,1-.16-.36,1.23,1.23,0,0,1,.09-1.16,1.94,1.94,0,0,1,.42-.48A1.22,1.22,0,0,1,9,3.65a1.58,1.58,0,0,1,.31,0l1.74.2a20.36,20.36,0,0,1,2.18.4,1,1,0,0,1,.32.14.68.68,0,0,1,.12.88.56.56,0,0,1-.28.2,1.47,1.47,0,0,1-.59.07c-.62-.07-1.24-.09-1.85-.17Zm4.22,1.48-.7-1-.21-.31,0-.06s-.05,0-.06,0l0,.06a.74.74,0,0,1-.29.29l-.2.08c-.06,0-.06.05,0,.11l.07.09.65.85c.33.44.66.87,1,1.3l.71.95c.11.13.21.27.31.4l.73.94c.19.26.39.52.59.77l0,0a.24.24,0,0,0,.31,0,.22.22,0,0,0,.08-.29.57.57,0,0,0-.08-.13l-.28-.41-1.5-2.17L16,8.19l-.9-1.34Zm-8-1.44c0-.07-.1-.13-.15-.2a.24.24,0,0,0-.22-.09l-.17,0a2.06,2.06,0,0,0-.75.45.36.36,0,0,0-.13.31c0,.15,0,.31.06.47a5.07,5.07,0,0,0,1.1,2.27,2.73,2.73,0,0,0,.66.56.59.59,0,0,0,.56,0A1.49,1.49,0,0,0,8.52,9a.54.54,0,0,0,.16-.63,6,6,0,0,0-.33-.79,13.8,13.8,0,0,0-.87-1.49ZM6.64,1a1.48,1.48,0,1,0,2.06.4A1.49,1.49,0,0,0,6.64,1Zm6.15,2.64-.13-.21-.57-.86a.54.54,0,0,0-.53-.24.38.38,0,0,0-.33.22.53.53,0,0,0,0,.52c.08.12.17.24.26.35a.27.27,0,0,0,.2.12q.55.09,1.08.21h.07A.2.2,0,0,0,12.79,3.59Z" style="fill: #f19000"/>
  </g>
</svg>
