<svg xmlns="http://www.w3.org/2000/svg" viewBox="0 0 540 360">
  <rect width="540" height="360" rx="16" style="fill: #ccc"/>
  <path d="M224.11,127.14c7.54,1,15.43,2.07,23.3,3.18q30.95,4.37,61.88,8.76,19.88,2.79,39.77,5.46c2.18.29,3,1.1,2.7,3.43q-5.81,40.29-11.42,80.61c-.44,3.18-1.36,3.9-4.79,3.41-38.87-5.59-77.76-10.93-116.65-16.32-9.39-1.31-9.51-1.31-8.15-11.12,3.48-25,7.07-50,10.6-75C221.56,128.1,221.72,126.69,224.11,127.14Zm86.32,66.73c-.81-1.48-1.48-2.67-2.13-3.89-3.92-7.35-7.88-14.7-11.73-22.09-1-1.83-1.49-2.66-3.3-.56-7.85,9.08-15.94,18-23.77,27.06-2,2.29-3.51,2.94-6.33,1.28-5.77-3.39-11.84-6.28-17.67-9.56-2.31-1.3-3.79-1.35-5.79.74-6.28,6.58-12.85,12.9-19.26,19.36-.74.74-1.95,1.24-1.8,2.81,1.61.24,3.22.51,4.84.72l57.1,7.2c15,1.89,30.05,3.83,45.09,5.64,4.56.56,4.68.25,3.83-4.38-1.21-6.58-2.31-13.18-3.49-19.76-.95-5.26-1.94-10.51-3-16.31Zm-60-25a13.09,13.09,0,0,0,13.31-13.05,13.3,13.3,0,1,0-26.59,0A13,13,0,0,0,250.47,168.84Zm-50.95,25.4q3.58-24.68,7.15-49.35c.34-2.32-1.08-2.16-2.53-1.9-4.22.75-8.42,1.59-12.64,2.33-1.88.33-2,1.27-1.67,3,3.06,15.44,6,30.9,9.06,46.64C199.37,194.42,199.51,194.34,199.52,194.24Zm37.78,38.29c-7.85-1.11-15.72-2.1-23.55-3.34-8.94-1.41-8.86-1.51-6.9,7.2.39,1.75,1,2.43,2.75,2.08l27.71-5.38Zm63-107.33q13.43,1.93,26.83,3.87c1.85.27,2.73.16,2.28-2.29-1.38-7.58-1.25-7.6-9-6-.62.12-1.25.17-1.87.29l-18.35,3.61Z" style="fill: #E6E6E6"/>
  <path d="M365.17,140.07c-2.15,15.37-3.69,29.71-6.29,43.86A74.64,74.64,0,0,0,360,216.08c1.26,5-.35,8.12-5.06,9.92-2,.77-2.28,2.09-2.52,3.71-.55,3.74-1,7.51-1.61,11.24-.76,4.62-4.08,7.12-8.61,6.49-18-2.5-36-5-54-7.63-5.08-.74-9.73,1.05-14.51,1.93-22.86,4.21-45.67,8.66-68.49,13-5.28,1-8.9-1.29-10-6.63q-5-24.88-9.74-49.81c-3.45-17.86-6.83-35.72-10.27-53.57-1.34-6.94.87-10.22,7.83-11.51,7.33-1.34,14.64-2.75,22-4.05,2.52-.44,4.23-1.31,4-4.31a18.7,18.7,0,0,1,.56-3.73c.81-5.93,4-8.16,10-7.27,11.12,1.64,22.25,3.16,33.38,4.74,7.1,1,13.78-1.43,20.56-2.67,18.76-3.43,37.46-7.16,56.2-10.73,5.46-1,9.15,1.46,10.25,6.91s2.21,11.15,3.15,16.75c.31,1.82,1,2.58,2.88,2.77,4,.41,8,1,12,1.58C362.47,133.88,365.35,137.17,365.17,140.07ZM223.81,127.15c-2.39-.45-2.55,1-2.76,2.44-3.53,25-7.12,50-10.6,75-1.36,9.81-1.24,9.81,8.15,11.11,38.89,5.4,77.78,10.74,116.65,16.32,3.43.5,4.35-.22,4.79-3.4q5.59-40.32,11.42-80.61c.34-2.34-.52-3.14-2.7-3.43q-19.89-2.67-39.77-5.46-30.94-4.35-61.88-8.76C239.24,129.23,231.35,128.18,223.81,127.15ZM198.59,195c.48-.51.62-.59.63-.69q3.59-24.67,7.15-49.35c.34-2.32-1.08-2.16-2.53-1.9-4.22.75-8.42,1.59-12.64,2.33-1.88.33-2,1.27-1.67,3C192.59,163.75,195.55,179.21,198.59,195ZM237,233.11v-.57c-7.85-1.1-15.72-2.09-23.55-3.33-8.94-1.41-8.86-1.52-6.9,7.2.39,1.74,1,2.42,2.75,2.08Zm62.92-108.45.09.55,26.83,3.88c1.85.27,2.73.15,2.28-2.3-1.38-7.57-1.25-7.59-9-6-.62.13-1.25.18-1.87.3ZM308,190c-3.92-7.36-7.88-14.7-11.73-22.09-1-1.83-1.49-2.66-3.3-.56-7.85,9.08-15.94,18-23.77,27.06-2,2.29-3.51,2.93-6.33,1.27-5.77-3.39-11.84-6.27-17.67-9.56-2.31-1.29-3.79-1.34-5.79.75-6.28,6.58-12.85,12.9-19.26,19.36-.74.74-2,1.24-1.8,2.81,1.61.24,3.22.51,4.84.72l57.1,7.2c15,1.89,30,3.82,45.09,5.64,4.57.55,4.68.24,3.83-4.39-1.21-6.57-2.31-13.17-3.49-19.75-1-5.26-1.94-10.51-3-16.32-4.48,4.17-8.42,7.85-12.59,11.75C309.32,192.41,308.65,191.21,308,190Zm-44.52-34.19a13.3,13.3,0,1,0-26.59,0,13.3,13.3,0,0,0,26.59,0Z" style="fill: #959595"/>
</svg>
